<svg width="46" height="40" viewBox="0 0 46 40" fill="none" xmlns="http://www.w3.org/2000/svg">
<path fill-rule="evenodd" clip-rule="evenodd" d="M34.3331 12.5C34.3331 12.7761 34.1092 13 33.8331 13H11.4998C11.2236 13 10.9998 12.7761 10.9998 12.5V11.5C10.9998 11.2239 11.2236 11 11.4998 11H33.8331C34.1092 11 34.3331 11.2239 34.3331 11.5V12.5Z" fill="#F1F1F1"/>
<path fill-rule="evenodd" clip-rule="evenodd" d="M34.3331 20.5C34.3331 20.7761 34.1092 21 33.8331 21H11.4998C11.2236 21 10.9998 20.7761 10.9998 20.5V19.5C10.9998 19.2239 11.2236 19 11.4998 19H33.8331C34.1092 19 34.3331 19.2239 34.3331 19.5V20.5Z" fill="#F1F1F1"/>
<path fill-rule="evenodd" clip-rule="evenodd" d="M34.3331 28.5C34.3331 28.7761 34.1092 29 33.8331 29H11.4998C11.2236 29 10.9998 28.7761 10.9998 28.5V27.5C10.9998 27.2239 11.2236 27 11.4998 27H33.8331C34.1092 27 34.3331 27.2239 34.3331 27.5V28.5Z" fill="#F1F1F1"/>
</svg>
