<svg width="40" height="40" viewBox="0 0 40 40" fill="none" xmlns="http://www.w3.org/2000/svg">
<g filter="url(#filter0_b_462_3932)">
<rect width="40" height="40" rx="20" fill="url(#paint0_linear_462_3932)"/>
<rect x="0.25" y="0.25" width="39.5" height="39.5" rx="19.75" stroke="#F1F1F1" stroke-width="0.5"/>
<g clip-path="url(#clip0_462_3932)">
<path d="M23.141 14.7513C24.1567 13.7313 25.6428 13.71 26.4652 14.5359C27.2897 15.3633 27.2677 16.8593 26.2506 17.8793L24.5343 19.6026C24.4376 19.703 24.3843 19.8373 24.3857 19.9765C24.3871 20.1158 24.4431 20.249 24.5418 20.3474C24.6404 20.4457 24.7738 20.5014 24.9131 20.5024C25.0524 20.5034 25.1865 20.4497 25.2865 20.3528L27.0035 18.6294C28.3572 17.2701 28.5272 15.1005 27.2182 13.7858C25.9077 12.4704 23.7424 12.6419 22.3873 14.0011L18.9547 17.4486C17.6011 18.8079 17.4311 20.9775 18.7401 22.2915C18.789 22.3423 18.8475 22.3829 18.9123 22.4109C18.977 22.4389 19.0467 22.4537 19.1172 22.4545C19.1878 22.4552 19.2577 22.442 19.3231 22.4154C19.3884 22.3889 19.4478 22.3495 19.4978 22.2998C19.5478 22.25 19.5874 22.1908 19.6143 22.1256C19.6411 22.0604 19.6547 21.9905 19.6543 21.9199C19.6538 21.8494 19.6394 21.7797 19.6117 21.7148C19.584 21.6499 19.5437 21.5912 19.4931 21.5421C18.6686 20.7147 18.6912 19.2187 19.7077 18.1987L23.141 14.7513Z" fill="white"/>
<path d="M22.2599 18.708C22.1603 18.6082 22.0252 18.552 21.8842 18.5518C21.7431 18.5516 21.6078 18.6074 21.508 18.707C21.4081 18.8065 21.3519 18.9417 21.3517 19.0827C21.3515 19.2237 21.4074 19.359 21.5069 19.4588C22.3314 20.2862 22.3095 21.7815 21.2923 22.8022L17.859 26.2489C16.8425 27.2689 15.3565 27.2902 14.5341 26.4643C13.7096 25.6369 13.7323 24.1409 14.7487 23.1209L16.4657 21.3976C16.515 21.3481 16.554 21.2895 16.5806 21.2249C16.6072 21.1604 16.6208 21.0913 16.6207 21.0215C16.6205 20.9517 16.6066 20.8826 16.5798 20.8182C16.553 20.7538 16.5137 20.6953 16.4643 20.646C16.4149 20.5968 16.3562 20.5577 16.2917 20.5311C16.2272 20.5046 16.158 20.4909 16.0882 20.4911C16.0184 20.4912 15.9494 20.5051 15.8849 20.5319C15.8205 20.5587 15.762 20.598 15.7128 20.6474L13.9958 22.3708C12.6421 23.7308 12.4721 25.8997 13.7811 27.2144C15.0915 28.5305 17.2569 28.3583 18.612 26.9991L22.0453 23.5516C23.3989 22.193 23.5689 20.022 22.2599 18.708Z" fill="white"/>
</g>
</g>
<defs>
<filter id="filter0_b_462_3932" x="-24" y="-24" width="88" height="88" filterUnits="userSpaceOnUse" color-interpolation-filters="sRGB">
<feFlood flood-opacity="0" result="BackgroundImageFix"/>
<feGaussianBlur in="BackgroundImageFix" stdDeviation="12"/>
<feComposite in2="SourceAlpha" operator="in" result="effect1_backgroundBlur_462_3932"/>
<feBlend mode="normal" in="SourceGraphic" in2="effect1_backgroundBlur_462_3932" result="shape"/>
</filter>
<linearGradient id="paint0_linear_462_3932" x1="27.1926" y1="-18.4444" x2="56.8413" y2="1.41253" gradientUnits="userSpaceOnUse">
<stop stop-color="#00DED4"/>
<stop offset="1" stop-color="#0292BF"/>
</linearGradient>
<clipPath id="clip0_462_3932">
<rect width="17" height="17" fill="white" transform="translate(12 12)"/>
</clipPath>
</defs>
</svg>
