<svg width="40" height="40" viewBox="0 0 40 40" fill="none" xmlns="http://www.w3.org/2000/svg">
<g filter="url(#filter0_b_40_400)">
<rect width="40" height="40" rx="20" fill="#4271A1" fill-opacity="0.66"/>
<rect x="0.25" y="0.25" width="39.5" height="39.5" rx="19.75" stroke="#F1F1F1" stroke-width="0.5"/>
<g clip-path="url(#clip0_40_400)">
<path d="M20 13.5307C22.4047 13.5307 22.6895 13.5406 23.6352 13.5805C24.5141 13.617 24.9887 13.7564 25.3051 13.8727C25.7234 14.0254 26.0258 14.2113 26.3387 14.5068C26.6551 14.8057 26.8484 15.0879 27.0102 15.483C27.1332 15.7818 27.2809 16.2334 27.3195 17.0602C27.3617 17.9566 27.3723 18.2256 27.3723 20.4934C27.3723 22.7645 27.3617 23.0334 27.3195 23.9266C27.2809 24.7566 27.1332 25.2049 27.0102 25.5037C26.8484 25.8988 26.6516 26.1844 26.3387 26.4799C26.0223 26.7787 25.7234 26.9613 25.3051 27.1141C24.9887 27.2303 24.5105 27.3697 23.6352 27.4062C22.6859 27.4461 22.4012 27.4561 20 27.4561C17.5953 27.4561 17.3105 27.4461 16.3648 27.4062C15.4859 27.3697 15.0113 27.2303 14.6949 27.1141C14.2766 26.9613 13.9742 26.7754 13.6613 26.4799C13.3449 26.1811 13.1516 25.8988 12.9898 25.5037C12.8668 25.2049 12.7191 24.7533 12.6805 23.9266C12.6383 23.0301 12.6277 22.7611 12.6277 20.4934C12.6277 18.2223 12.6383 17.9533 12.6805 17.0602C12.7191 16.2301 12.8668 15.7818 12.9898 15.483C13.1516 15.0879 13.3484 14.8023 13.6613 14.5068C13.9777 14.208 14.2766 14.0254 14.6949 13.8727C15.0113 13.7564 15.4895 13.617 16.3648 13.5805C17.3105 13.5406 17.5953 13.5307 20 13.5307ZM20 12C17.5566 12 17.2508 12.01 16.291 12.0498C15.3348 12.0896 14.6773 12.2357 14.1078 12.4449C13.5137 12.6641 13.0109 12.9529 12.5117 13.4277C12.009 13.8992 11.7031 14.374 11.4711 14.9318C11.2496 15.473 11.0949 16.0906 11.0527 16.9937C11.0105 17.9035 11 18.1924 11 20.5C11 22.8076 11.0105 23.0965 11.0527 24.0029C11.0949 24.9061 11.2496 25.527 11.4711 26.0648C11.7031 26.626 12.009 27.1008 12.5117 27.5723C13.0109 28.0437 13.5137 28.3359 14.1043 28.5518C14.6773 28.7609 15.3313 28.907 16.2875 28.9469C17.2473 28.9867 17.5531 28.9967 19.9965 28.9967C22.4398 28.9967 22.7457 28.9867 23.7055 28.9469C24.6617 28.907 25.3191 28.7609 25.8887 28.5518C26.4793 28.3359 26.982 28.0437 27.4813 27.5723C27.9805 27.1008 28.2898 26.626 28.5184 26.0682C28.7398 25.527 28.8945 24.9094 28.9367 24.0063C28.9789 23.0998 28.9895 22.8109 28.9895 20.5033C28.9895 18.1957 28.9789 17.9068 28.9367 17.0004C28.8945 16.0973 28.7398 15.4764 28.5184 14.9385C28.2969 14.374 27.991 13.8992 27.4883 13.4277C26.9891 12.9563 26.4863 12.6641 25.8957 12.4482C25.3227 12.2391 24.6688 12.093 23.7125 12.0531C22.7492 12.01 22.4434 12 20 12Z" fill="white"/>
<path d="M20 16.1338C17.4477 16.1338 15.377 18.0895 15.377 20.5C15.377 22.9105 17.4477 24.8662 20 24.8662C22.5523 24.8662 24.623 22.9105 24.623 20.5C24.623 18.0895 22.5523 16.1338 20 16.1338ZM20 23.3322C18.3441 23.3322 17.0012 22.0639 17.0012 20.5C17.0012 18.9361 18.3441 17.6678 20 17.6678C21.6559 17.6678 22.9988 18.9361 22.9988 20.5C22.9988 22.0639 21.6559 23.3322 20 23.3322Z" fill="white"/>
<path d="M25.8852 15.961C25.8852 16.5254 25.4 16.9803 24.8059 16.9803C24.2082 16.9803 23.7266 16.5221 23.7266 15.961C23.7266 15.3965 24.2117 14.9417 24.8059 14.9417C25.4 14.9417 25.8852 15.3999 25.8852 15.961Z" fill="white"/>
</g>
</g>
<defs>
<filter id="filter0_b_40_400" x="-24" y="-24" width="88" height="88" filterUnits="userSpaceOnUse" color-interpolation-filters="sRGB">
<feFlood flood-opacity="0" result="BackgroundImageFix"/>
<feGaussianBlur in="BackgroundImageFix" stdDeviation="12"/>
<feComposite in2="SourceAlpha" operator="in" result="effect1_backgroundBlur_40_400"/>
<feBlend mode="normal" in="SourceGraphic" in2="effect1_backgroundBlur_40_400" result="shape"/>
</filter>
<clipPath id="clip0_40_400">
<rect width="18" height="17" fill="white" transform="translate(11 12)"/>
</clipPath>
</defs>
</svg>
