<svg width="40" height="40" viewBox="0 0 40 40" fill="none" xmlns="http://www.w3.org/2000/svg">
<rect x="0.5" y="0.5" width="39" height="39" rx="19.5" fill="#5D5D5D" fill-opacity="0.3"/>
<rect x="0.5" y="0.5" width="39" height="39" rx="19.5" stroke="white"/>
<path d="M22.8939 12.0847C22.7425 12.0162 22.5734 11.9884 22.4058 12.0044C22.2383 12.0205 22.0789 12.0798 21.946 12.1757L16.7904 15.8889H13.4998C13.102 15.8889 12.7206 16.0352 12.4393 16.2957C12.158 16.5561 12 16.9094 12 17.2778V21.7222C12 22.0906 12.158 22.4438 12.4393 22.7043C12.7206 22.9648 13.102 23.1111 13.4998 23.1111H16.7904L21.946 26.8243C22.0789 26.9201 22.2383 26.9795 22.4059 26.9956C22.5734 27.0116 22.7425 26.9838 22.8939 26.9153C23.0453 26.8468 23.1728 26.7403 23.262 26.6079C23.3512 26.4756 23.3985 26.3227 23.3985 26.1667V12.8333C23.3985 12.6773 23.3512 12.5244 23.262 12.392C23.1728 12.2597 23.0452 12.1532 22.8939 12.0847ZM21.5988 24.4632L17.652 21.6201C17.494 21.5063 17.2995 21.4444 17.0993 21.4444H13.7998V17.5555H17.0993C17.2995 17.5555 17.494 17.4937 17.652 17.3798L21.5988 14.5375V24.4632ZM29.7345 20.5778C29.8182 20.6553 29.8846 20.7473 29.9299 20.8486C29.9752 20.9499 29.9985 21.0584 29.9985 21.168C29.9985 21.2777 29.9752 21.3862 29.9299 21.4875C29.8846 21.5888 29.8182 21.6808 29.7345 21.7583C29.6508 21.8358 29.5514 21.8973 29.442 21.9393C29.3327 21.9812 29.2154 22.0028 29.0971 22.0028C28.9787 22.0028 28.8615 21.9812 28.7521 21.9393C28.6427 21.8973 28.5433 21.8358 28.4596 21.7583L27.298 20.6805L26.1349 21.7583C25.9659 21.9149 25.7366 22.0028 25.4975 22.0028C25.2584 22.0028 25.0292 21.9149 24.8601 21.7583C24.691 21.6018 24.5961 21.3894 24.5961 21.168C24.5961 20.9466 24.691 20.7343 24.8601 20.5778L26.0232 19.5L24.8593 18.4229C24.6903 18.2663 24.5953 18.054 24.5953 17.8326C24.5953 17.6112 24.6903 17.3989 24.8593 17.2423C25.0284 17.0858 25.2577 16.9978 25.4968 16.9978C25.7358 16.9978 25.9651 17.0858 26.1342 17.2423L27.298 18.3194L28.4611 17.2423C28.6302 17.0858 28.8595 16.9978 29.0986 16.9978C29.3376 16.9978 29.5669 17.0858 29.736 17.2423C29.905 17.3989 30 17.6112 30 17.8326C30 18.054 29.905 18.2663 29.736 18.4229L28.5729 19.5L29.7345 20.5778Z" fill="white"/>
</svg>
