<?xml version="1.0" encoding="UTF-8" standalone="no"?>
<svg
   xmlns:dc="http://purl.org/dc/elements/1.1/"
   xmlns:cc="http://creativecommons.org/ns#"
   xmlns:rdf="http://www.w3.org/1999/02/22-rdf-syntax-ns#"
   xmlns:svg="http://www.w3.org/2000/svg"
   xmlns="http://www.w3.org/2000/svg"
   viewBox="0 0 21.333332 20"
   height="20"
   width="21.333332"
   xml:space="preserve"
   id="svg2"
   version="1.1"><metadata
     id="metadata8"><rdf:RDF><cc:Work
         rdf:about=""><dc:format>image/svg+xml</dc:format><dc:type
           rdf:resource="http://purl.org/dc/dcmitype/StillImage" /></cc:Work></rdf:RDF></metadata><defs
     id="defs6"><clipPath
       id="clipPath22"
       clipPathUnits="userSpaceOnUse"><path
         style="clip-rule:evenodd"
         id="path20"
         d="m 13.925926,13.124999 h -1.894815 l -0.919999,1.457812 c -0.08131,0.128536 -0.191484,0.233881 -0.320717,0.306666 -0.129234,0.07278 -0.27352,0.110751 -0.420024,0.110522 H 5.62963 C 5.483125,15.000228 5.338838,14.962261 5.209604,14.889477 5.080371,14.816692 4.970199,14.711347 4.888889,14.582811 L 3.968148,13.124999 H 2.074074 c -0.550079,0 -1.077628,-0.230468 -1.466592,-0.640704 C 0.218518,12.074059 0,11.51766 0,10.9375 v -8.75 C 0,1.607339 0.218518,1.050939 0.607482,0.640703 0.996446,0.230468 1.523995,0 2.074074,0 h 11.851852 c 0.272372,0 0.542075,0.056582 0.793714,0.166514 0.251638,0.109932 0.480283,0.271061 0.672878,0.474189 0.192596,0.203128 0.34537,0.444277 0.449602,0.709677 C 15.946352,1.61578 16,1.900233 16,2.1875 v 8.75 c 0,0.287266 -0.05365,0.57172 -0.15788,0.837119 -0.104232,0.2654 -0.257006,0.506548 -0.449602,0.709676 -0.192595,0.203129 -0.42124,0.364259 -0.672878,0.474191 -0.251639,0.109932 -0.521342,0.166513 -0.793714,0.166513 z M 14.222222,2.1875 c 0,-0.08288 -0.03122,-0.162366 -0.08678,-0.220971 C 14.079872,1.907924 14.004509,1.875 13.925926,1.875 H 2.074074 C 1.995491,1.875 1.920127,1.907924 1.864561,1.966529 1.808995,2.025134 1.777778,2.10462 1.777778,2.1875 v 8.75 c 0,0.08288 0.031217,0.162365 0.086783,0.22097 0.055566,0.05861 0.13093,0.09153 0.209513,0.09153 h 2.370371 c 0.146505,-2.3e-4 0.290792,0.03774 0.420025,0.110521 0.129233,0.07278 0.239405,0.17813 0.320715,0.306666 l 0.92,1.457812 h 3.788889 l 0.920741,-1.457812 c 0.08131,-0.128536 0.191482,-0.233881 0.320715,-0.306666 0.129234,-0.07278 0.273521,-0.110751 0.420025,-0.110521 h 2.370371 c 0.07858,0 0.153946,-0.03293 0.209513,-0.09153 0.05557,-0.05861 0.08678,-0.13809 0.08678,-0.22097 v -8.75 z m -2.962963,4.375 c 0,-0.24864 -0.09365,-0.487097 -0.26035,-0.662912 C 10.83221,5.723772 10.606119,5.625 10.370371,5.625 H 8.888889 V 4.0625 c 0,-0.24864 -0.093651,-0.487097 -0.26035,-0.662912 C 8.46184,3.223772 8.235748,3.125 8,3.125 7.764252,3.125 7.538159,3.223772 7.37146,3.399588 7.204762,3.575403 7.111111,3.81386 7.111111,4.0625 V 5.625 H 5.62963 C 5.393882,5.625 5.167789,5.723772 5.00109,5.899588 4.834391,6.075403 4.740741,6.31386 4.740741,6.5625 c 0,0.24864 0.09365,0.487097 0.260349,0.662912 C 5.167789,7.401228 5.393882,7.5 5.62963,7.5 h 1.481481 v 1.5625 c 0,0.24864 0.093651,0.487097 0.260349,0.662912 C 7.538159,9.901227 7.764252,10 8,10 8.235748,10 8.46184,9.901227 8.628539,9.725412 8.795238,9.549597 8.888889,9.31114 8.888889,9.0625 V 7.5 h 1.481482 c 0.235748,0 0.461839,-0.098772 0.628538,-0.274588 0.166699,-0.175815 0.26035,-0.414272 0.26035,-0.662912 z" /></clipPath></defs><g
     transform="matrix(1.3333333,0,0,-1.3333333,0,20)"
     id="g10"><g
       id="g12"><g
         transform="translate(0,-2.44e-4)"
         id="g14"><path
           id="path16"
           style="fill:#2de6ff;fill-opacity:1;fill-rule:nonzero;stroke:none"
           d="m 13.925926,13.125243 h -1.894815 l -0.919999,1.457812 c -0.08131,0.128536 -0.191484,0.233881 -0.320717,0.306666 -0.129234,0.07278 -0.27352,0.110751 -0.420024,0.110522 H 5.62963 C 5.483125,15.000472 5.338838,14.962505 5.209604,14.889721 5.080371,14.816936 4.970199,14.711591 4.888889,14.583055 L 3.968148,13.125243 H 2.074074 c -0.550079,0 -1.077628,-0.230468 -1.466592,-0.640704 C 0.218518,12.074304 0,11.517904 0,10.937744 v -8.75 C 0,1.607583 0.218518,1.051183 0.607482,0.640947 0.996446,0.230712 1.523995,2.44e-4 2.074074,2.44e-4 h 11.851852 c 0.272372,0 0.542075,0.056583 0.793714,0.166515 0.251638,0.109931 0.480283,0.27106 0.672878,0.474188 0.192596,0.203128 0.34537,0.444277 0.449602,0.709677 C 15.946352,1.616024 16,1.900477 16,2.187744 v 8.75 c 0,0.287266 -0.05365,0.57172 -0.15788,0.837119 -0.104232,0.2654 -0.257006,0.506548 -0.449602,0.709676 -0.192595,0.203129 -0.42124,0.364259 -0.672878,0.474191 -0.251639,0.109932 -0.521342,0.166513 -0.793714,0.166513 z M 14.222222,2.187744 c 0,-0.08288 -0.03122,-0.162366 -0.08678,-0.220971 -0.05557,-0.058605 -0.13093,-0.091529 -0.209513,-0.091529 H 2.074077 c -0.078583,0 -0.153947,0.032924 -0.209513,0.091529 C 1.808995,2.025378 1.777778,2.104864 1.777778,2.187744 v 8.75 c 0,0.08288 0.031217,0.162365 0.086783,0.22097 0.055566,0.05861 0.13093,0.09153 0.209513,0.09153 h 2.370371 c 0.146505,-2.3e-4 0.290792,0.03774 0.420025,0.110521 0.129233,0.07278 0.239405,0.178131 0.320715,0.306666 l 0.92,1.457812 h 3.788889 l 0.920741,-1.457812 c 0.08131,-0.128535 0.191482,-0.233881 0.320715,-0.306666 0.129234,-0.07278 0.273521,-0.110751 0.420025,-0.110521 h 2.370371 c 0.07858,0 0.153946,-0.03293 0.209513,-0.09153 0.05557,-0.05861 0.08678,-0.13809 0.08678,-0.22097 v -8.75 z m -2.962963,4.375 c 0,-0.24864 -0.09365,-0.487097 -0.26035,-0.662912 C 10.83221,5.724016 10.606119,5.625244 10.370371,5.625244 H 8.888889 v -1.5625 c 0,-0.24864 -0.093651,-0.487097 -0.26035,-0.662912 C 8.46184,3.224016 8.235748,3.125244 8,3.125244 7.764252,3.125244 7.538159,3.224016 7.37146,3.399832 7.204762,3.575647 7.111111,3.814104 7.111111,4.062744 v 1.5625 H 5.62963 c -0.235748,0 -0.461841,0.098772 -0.62854,0.274588 -0.166699,0.175815 -0.260349,0.414272 -0.260349,0.662912 0,0.24864 0.09365,0.487097 0.260349,0.662913 0.166699,0.175815 0.392792,0.274587 0.62854,0.274587 h 1.481481 v 1.5625 c 0,0.24864 0.093651,0.487097 0.260349,0.662913 0.166699,0.175814 0.392792,0.274587 0.62854,0.274587 0.235748,0 0.46184,-0.098773 0.628539,-0.274587 0.166699,-0.175816 0.26035,-0.414273 0.26035,-0.662913 v -1.5625 h 1.481482 c 0.235748,0 0.461839,-0.098772 0.628538,-0.274587 0.166699,-0.175816 0.26035,-0.414273 0.26035,-0.662913 z" /></g><g
         clip-path="url(#clipPath22)"
         id="g18"><g
           transform="translate(0,-2.44e-4)"
           id="g24"><path
             id="path26"
             style="fill:#0d2c69;fill-opacity:1;fill-rule:nonzero;stroke:none"
             d="m 13.925926,13.125243 v -0.3 z m -1.894815,0 -0.253703,-0.160107 0.08828,-0.139893 h 0.165421 v 0.3 z m -0.919999,1.457812 0.253704,0.160108 -1.74e-4,2.74e-4 z m -0.740741,0.417188 v -0.3 h 4.69e-4 z m -4.740741,0 -4.7e-4,-0.3 h 4.7e-4 z M 4.888889,14.583055 4.635358,14.743437 4.635243,14.743256 Z M 3.968148,13.125243 v -0.3 h 0.165349 l 0.088297,0.1398 z M 0,10.937744 H -0.3 Z M 13.925926,2.44e-4 v 0.3 z M 16,2.187744 h -0.3 z m 0,8.75 h -0.3 z m -11.555555,0.3125 4.69e-4,0.299999 h -4.69e-4 z m 0.74074,0.417187 0.253531,-0.160381 1.73e-4,2.73e-4 z m 0.92,1.457812 v 0.3 H 5.939765 L 5.851481,13.285351 Z m 3.788889,0 0.253645,0.1602 -0.0883,0.1398 H 9.89407 v -0.3 z m 0.920741,-1.457812 -0.253646,-0.1602 1.15e-4,-1.81e-4 z m 0.74074,-0.417187 v 0.3 l -4.69e-4,-10e-7 z m -2.666666,-5.625 v 0.3 h -0.3 v -0.3 z m -1.777778,-1.5625 h -0.3 z m 0,1.5625 h 0.3 v 0.3 h -0.3 z m -2.37037,0.9375 h -0.3 z m 0.888889,0.9375 v 0.3 z m 1.481481,0 V 7.200243 h 0.3 V 7.500244 Z M 8,10.000244 v 0.299999 z m 0.888889,-2.5 h -0.3 V 7.200243 h 0.3 z m 1.481482,0 v 0.3 z m 3.555555,5.924999 h -1.894815 v -0.6 h 1.894815 z m -1.641112,-0.139892 -0.919999,1.457812 -0.507406,-0.320215 0.919999,-1.457812 z m -0.920172,1.458086 c -0.107143,0.169372 -0.253418,0.309899 -0.427029,0.407678 l -0.294436,-0.522788 c 0.08486,-0.04779 0.158927,-0.117955 0.214404,-0.205653 z m -0.427029,0.407678 c -0.173725,0.09784 -0.368804,0.149438 -0.567711,0.149127 l 9.38e-4,-0.599999 c 0.0941,1.48e-4 0.187594,-0.02419 0.272337,-0.07192 l 0.294436,0.522788 z m -0.567242,0.149128 H 5.62963 v -0.6 h 4.740741 z m -4.740272,-10e-7 c -0.198907,3.11e-4 -0.393988,-0.05128 -0.567712,-0.149127 l 0.294435,-0.522788 c 0.084742,0.04773 0.178236,0.07206 0.272338,0.07192 l 9.39e-4,0.599999 z M 5.062387,15.151115 C 4.888773,15.053336 4.742501,14.912808 4.635358,14.743437 L 5.14242,14.422674 c 0.055477,0.0877 0.129548,0.157863 0.214402,0.205653 z m -0.427144,-0.407859 -0.92074,-1.457813 0.507291,-0.3204 0.92074,1.457812 z M 3.968148,13.425243 H 2.074074 v -0.6 h 1.894074 z m -1.894074,0 c -0.634954,0 -1.24045,-0.266176 -1.684293,-0.734291 l 0.435402,-0.412825 c 0.334086,0.352357 0.783687,0.547116 1.248891,0.547116 z M 0.389781,12.690952 C -0.053547,12.223379 -0.3,11.592468 -0.3,10.937744 h 0.6 c 0,0.505597 0.190583,0.987484 0.525183,1.340383 z M -0.3,10.937744 v -8.75 h 0.6 v 8.75 z m 0,-8.75 c 0,-0.654724 0.246453,-1.285637 0.689781,-1.75321 L 0.825183,0.847361 C 0.490583,1.200259 0.3,1.682146 0.3,2.187744 Z m 0.689781,-1.75321 c 0.443843,-0.468115 1.04934,-0.73429 1.684293,-0.73429 v 0.6 c -0.465204,0 -0.914805,0.19476 -1.248891,0.547117 z m 1.684293,-0.73429 h 11.851852 v 0.6 H 2.074074 Z m 11.851852,0 c 0.314054,0 0.624618,0.065264 0.913813,0.191604 L 14.599541,0.441669 C 14.385459,0.348145 14.156615,0.300244 13.925926,0.300244 Z m 0.913813,0.191604 c 0.28915,0.126319 0.55081,0.311002 0.77048,0.542686 L 15.174817,0.847361 C 15.009296,0.672788 14.813666,0.535214 14.599541,0.441669 Z m 0.77048,0.542686 c 0.219639,0.23165 0.393075,0.505804 0.511138,0.806423 L 15.562883,1.460291 C 15.472484,1.23011 15.340369,1.021966 15.174817,0.847361 Z m 0.511138,0.806423 c 0.118057,0.300602 0.178642,0.622276 0.178642,0.946787 H 15.7 c 0,-0.250022 -0.04671,-0.497255 -0.137117,-0.727453 z m 0.178642,0.946787 v 8.75 H 15.7 v -8.75 z m 0,8.75 c 0,0.324511 -0.06058,0.646185 -0.178642,0.946786 L 15.562883,11.665197 C 15.653291,11.434999 15.7,11.187765 15.7,10.937744 Z m -0.178642,0.946786 c -0.118065,0.30062 -0.291499,0.574772 -0.511138,0.806422 l -0.435402,-0.412825 c 0.165552,-0.174607 0.297667,-0.382751 0.388066,-0.61293 z m -0.511138,0.806422 c -0.21967,0.231684 -0.481329,0.416369 -0.77048,0.542689 l -0.240198,-0.549822 c 0.214125,-0.09354 0.409755,-0.231119 0.575276,-0.405692 z m -0.77048,0.542689 c -0.289195,0.12634 -0.59976,0.191602 -0.913813,0.191602 v -0.6 c 0.23069,0 0.459534,-0.0479 0.673615,-0.141424 z M 13.922222,2.187744 c 0,-0.00832 -0.0033,-0.013289 -0.0045,-0.014558 L 14.35314,1.76036 c 0.10993,0.115942 0.169083,0.26994 0.169083,0.427384 z m -0.0045,-0.014558 c -6.89e-4,-7.25e-4 0.0019,0.00206 0.0082,0.00206 v -0.6 c 0.163458,0 0.316769,0.068632 0.427214,0.185116 l -0.435402,0.412826 z m 0.0082,0.00206 H 2.07407 v -0.6 h 11.851852 z m -11.851852,0 c 0.00629,0 0.00888,-0.00278 0.00819,-0.00206 L 1.64686,1.76036 C 1.757305,1.643875 1.910617,1.575244 2.074074,1.575244 v 0.6 z m 0.00819,-0.00206 c -0.0012,0.00127 -0.00448,0.00624 -0.00448,0.014558 h -0.6 C 1.477778,2.0303 1.53693,1.876302 1.64686,1.76036 L 2.082262,2.173186 Z M 2.07778,2.187744 v 8.75 h -0.6 v -8.75 z m 0,8.75 c 0,0.0083 0.00328,0.01329 0.00448,0.01456 l -0.4354,0.412824 C 1.53693,11.249186 1.477778,11.095187 1.477778,10.937744 h 0.6 z m 0.00448,0.01456 c 6.88e-4,7.26e-4 -0.0019,-0.0021 -0.00819,-0.0021 v 0.6 c -0.163457,0 -0.316769,-0.06863 -0.427214,-0.185115 l 0.435402,-0.412826 z m -0.00819,-0.0021 h 2.370371 v 0.6 H 2.07407 Z m 2.369901,1e-6 c 0.198907,-3.11e-4 0.393988,0.05129 0.567713,0.149127 L 4.717252,11.62216 C 4.632511,11.57443 4.539017,11.5501 4.444914,11.55024 l -9.39e-4,-0.599999 z m 0.567713,0.149127 c 0.173613,0.09778 0.319885,0.238307 0.427028,0.407679 L 4.931654,11.827812 C 4.876177,11.740113 4.802106,11.66995 4.717252,11.62216 l 0.294436,-0.522789 z m 0.427201,0.407952 0.92,1.457813 -0.507408,0.320215 -0.919999,-1.457813 z m 0.666296,1.31792 H 9.89407 v 0.6 H 6.105181 Z m 3.535244,0.1398 0.920741,-1.457812 0.50729,0.3204 -0.920741,1.457812 z m 0.920855,-1.457993 c 0.107143,-0.169372 0.253416,-0.3099 0.427029,-0.407679 l 0.294435,0.522789 c -0.08485,0.04779 -0.158926,0.117954 -0.214403,0.205652 L 10.561284,11.50705 Z m 0.427029,-0.407679 c 0.173725,-0.09784 0.368805,-0.149438 0.567712,-0.149127 l -9.39e-4,0.599999 c -0.0941,-1.46e-4 -0.187596,0.02419 -0.272338,0.07192 l -0.294435,-0.522789 z m 0.567242,-0.149128 h 2.370371 v 0.6 h -2.370371 z m 2.370371,0 c -0.0063,0 -0.0089,0.0028 -0.0082,0.0021 l 0.435402,0.412826 c -0.110445,0.116484 -0.263756,0.185115 -0.427214,0.185115 v -0.6 z m -0.0082,0.0021 c 0.0012,-0.0013 0.0045,-0.0062 0.0045,-0.01456 h 0.600001 c 0,0.157444 -0.05915,0.311442 -0.169083,0.427384 l -0.435402,-0.412826 z m 0.0045,-0.01456 v -8.75 h 0.600001 v 8.75 z m -2.962963,-4.375 c 0,-0.174076 -0.06572,-0.33802 -0.178051,-0.456499 L 11.21661,5.693419 c 0.221063,0.233152 0.342649,0.54612 0.342649,0.869325 z M 10.781208,6.106245 C 10.669387,5.988308 10.521243,5.925244 10.370371,5.925244 v -0.6 c 0.320623,0 0.624662,0.13448 0.846239,0.368175 z M 10.370371,5.925244 H 8.888889 v -0.6 h 1.481482 z m -1.781482,-0.3 v -1.5625 H 9.18889 v 1.5625 z m 0,-1.5625 c 0,-0.174076 -0.065716,-0.33802 -0.178051,-0.456499 L 8.84624,3.193419 c 0.221063,0.233152 0.34265,0.54612 0.34265,0.869325 z M 8.410838,3.606245 C 8.299017,3.488308 8.150872,3.425244 8,3.425244 v -0.6 c 0.320623,0 0.624663,0.13448 0.84624,0.368175 z M 8,3.425244 c -0.150873,0 -0.299017,0.063065 -0.410839,0.181001 L 7.153759,3.193419 C 7.375337,2.959724 7.679377,2.825244 8,2.825244 Z M 7.589161,3.606245 C 7.476827,3.724723 7.411111,3.888667 7.411111,4.062744 h -0.6 c 0,-0.323204 0.121585,-0.636173 0.342648,-0.869325 z m -0.17805,0.456499 v 1.5625 h -0.6 v -1.5625 z m -0.3,1.8625 H 5.62963 v -0.6 h 1.481481 z m -1.481481,0 c -0.150873,0 -0.299018,0.063065 -0.410839,0.181001 L 4.783389,5.693419 C 5.004966,5.459724 5.309007,5.325244 5.62963,5.325244 Z M 5.218791,6.106245 C 5.106456,6.224723 5.040741,6.388667 5.040741,6.562744 h -0.6 c 0,-0.323204 0.121585,-0.636173 0.342648,-0.869325 z m -0.17805,0.456499 c 0,0.174077 0.065715,0.338021 0.17805,0.4565 L 4.783389,7.432069 C 4.562326,7.198917 4.440741,6.885948 4.440741,6.562744 Z m 0.17805,0.4565 C 5.330612,7.137179 5.478756,7.200243 5.62963,7.200243 v 0.600001 c -0.320623,0 -0.624664,-0.13448 -0.846241,-0.368175 z M 5.62963,7.200243 H 7.111111 V 7.800244 H 5.62963 Z m 1.781481,0.300001 v 1.5625 h -0.6 v -1.5625 z m 0,1.5625 c 0,0.174076 0.065716,0.33802 0.17805,0.456499 L 7.153759,9.932069 C 6.932696,9.698916 6.811111,9.385947 6.811111,9.062744 Z m 0.17805,0.456499 C 7.700983,9.637179 7.849127,9.700243 8,9.700243 v 0.6 c -0.320623,0 -0.624663,-0.134479 -0.846241,-0.368174 z M 8,9.700243 c 0.150872,0 0.299017,-0.063064 0.410838,-0.181 L 8.84624,9.932069 C 8.624663,10.165764 8.320623,10.300243 8,10.300243 Z m 0.410838,-0.181 C 8.523173,9.400764 8.588889,9.23682 8.588889,9.062744 H 9.18889 c 0,0.323204 -0.121587,0.636173 -0.34265,0.869325 z M 8.588889,9.062744 v -1.5625 H 9.18889 v 1.5625 z m 0.3,-1.862501 h 1.481482 V 7.800244 H 8.888889 Z m 1.481482,0 c 0.150873,0 0.299016,-0.063063 0.410837,-0.180999 l 0.435402,0.412825 c -0.221577,0.233695 -0.525616,0.368175 -0.846239,0.368175 z m 0.410837,-0.180999 c 0.112335,-0.11848 0.178051,-0.282424 0.178051,-0.4565 h 0.6 c 0,0.323205 -0.121586,0.636173 -0.342649,0.869325 z" /></g></g></g></g></svg>