<svg width="42" height="43" viewBox="0 0 42 43" fill="none" xmlns="http://www.w3.org/2000/svg">
<g filter="url(#filter0_b_809_394)">
<rect y="0.725342" width="42" height="41.8891" rx="20.9445" fill="url(#paint0_linear_809_394)" fill-opacity="0.7"/>
<rect x="0.5" y="1.22534" width="41" height="40.8891" rx="20.4445" stroke="white"/>
<path d="M31.9684 22.6705C31.7891 24.7546 31.0183 26.7442 29.7467 28.4051C28.4751 30.0661 26.7556 31.3293 24.7904 32.0462C22.8253 32.763 20.6962 32.9037 18.6538 32.4517C16.6114 31.9997 14.7406 30.9738 13.2615 29.4946C11.7823 28.0155 10.7564 26.1447 10.3044 24.1023C9.85237 22.0599 9.99307 19.9308 10.7099 17.9657C11.4268 16.0005 12.69 14.281 14.351 13.0094C16.0119 11.7378 18.0015 10.967 20.0856 10.7877C20.4088 10.7607 20.7295 10.8633 20.9771 11.0728C21.2247 11.2823 21.379 11.5816 21.4059 11.9049C21.4329 12.2281 21.3303 12.5488 21.1208 12.7964C20.9113 13.044 20.612 13.1982 20.2887 13.2252C18.6671 13.3642 17.119 13.9636 15.8265 14.9527C14.5341 15.9418 13.551 17.2795 12.993 18.8084C12.4351 20.3374 12.3254 21.9938 12.677 23.5829C13.0286 25.172 13.8268 26.6277 14.9776 27.7785C16.1284 28.9293 17.5841 29.7275 19.1732 30.0791C20.7623 30.4307 22.4187 30.321 23.9476 29.7631C25.4765 29.2051 26.8143 28.222 27.8034 26.9296C28.7925 25.6371 29.3919 24.0889 29.5309 22.4674C29.5443 22.3073 29.589 22.1515 29.6626 22.0087C29.7361 21.8659 29.8371 21.7391 29.9597 21.6353C30.0823 21.5316 30.2241 21.453 30.3771 21.4041C30.5301 21.3552 30.6912 21.3368 30.8512 21.3502C31.0113 21.3635 31.1671 21.4082 31.3099 21.4818C31.4527 21.5554 31.5795 21.6564 31.6833 21.779C31.787 21.9016 31.8656 22.0434 31.9145 22.1964C31.9634 22.3493 31.9818 22.5104 31.9684 22.6705ZM19.7809 16.4752V21.7564C19.7809 22.0797 19.9093 22.3897 20.1379 22.6182C20.3664 22.8468 20.6764 22.9752 20.9997 22.9752H26.2809C26.6041 22.9752 26.9141 22.8468 27.1427 22.6182C27.3713 22.3897 27.4997 22.0797 27.4997 21.7564C27.4997 21.4332 27.3713 21.1232 27.1427 20.8946C26.9141 20.6661 26.6041 20.5377 26.2809 20.5377H22.2184V16.4752C22.2184 16.1519 22.09 15.8419 21.8615 15.6134C21.6329 15.3848 21.3229 15.2564 20.9997 15.2564C20.6764 15.2564 20.3664 15.3848 20.1379 15.6134C19.9093 15.8419 19.7809 16.1519 19.7809 16.4752ZM29.1247 18.5064C29.4461 18.5064 29.7602 18.4111 30.0275 18.2326C30.2947 18.054 30.503 17.8002 30.626 17.5033C30.749 17.2064 30.7811 16.8796 30.7184 16.5644C30.6557 16.2492 30.501 15.9596 30.2737 15.7324C30.0465 15.5051 29.7569 15.3503 29.4417 15.2876C29.1265 15.2249 28.7997 15.2571 28.5028 15.3801C28.2059 15.5031 27.9521 15.7114 27.7735 15.9786C27.595 16.2459 27.4997 16.56 27.4997 16.8814C27.4997 17.3124 27.6709 17.7257 27.9756 18.0305C28.2804 18.3352 28.6937 18.5064 29.1247 18.5064ZM25.8747 15.2564C26.1961 15.2564 26.5102 15.1611 26.7775 14.9826C27.0447 14.804 27.253 14.5502 27.376 14.2533C27.499 13.9564 27.5311 13.6296 27.4684 13.3144C27.4057 12.9992 27.251 12.7096 27.0237 12.4824C26.7965 12.2551 26.5069 12.1003 26.1917 12.0376C25.8765 11.9749 25.5497 12.0071 25.2528 12.1301C24.9559 12.2531 24.7021 12.4614 24.5235 12.7286C24.345 12.9959 24.2497 13.31 24.2497 13.6314C24.2497 14.0624 24.4209 14.4757 24.7256 14.7805C25.0304 15.0852 25.4437 15.2564 25.8747 15.2564Z" fill="#F1F1F1"/>
</g>
<defs>
<filter id="filter0_b_809_394" x="-24" y="-23.2747" width="90" height="89.8892" filterUnits="userSpaceOnUse" color-interpolation-filters="sRGB">
<feFlood flood-opacity="0" result="BackgroundImageFix"/>
<feGaussianBlur in="BackgroundImageFix" stdDeviation="12"/>
<feComposite in2="SourceAlpha" operator="in" result="effect1_backgroundBlur_809_394"/>
<feBlend mode="normal" in="SourceGraphic" in2="effect1_backgroundBlur_809_394" result="shape"/>
</filter>
<linearGradient id="paint0_linear_809_394" x1="11.468" y1="-26.6808" x2="42.8365" y2="-25.6991" gradientUnits="userSpaceOnUse">
<stop stop-color="#1FFFFF"/>
<stop offset="0.365" stop-color="#23FF5F"/>
<stop offset="1" stop-color="#FFB82D"/>
</linearGradient>
</defs>
</svg>
