<svg width="278" height="30" viewBox="0 0 278 30" fill="none" xmlns="http://www.w3.org/2000/svg">
<mask id="path-1-inside-1_40_391" fill="white">
<path d="M6.38368 0.571998H10.4717L9.57568 6.2H12.6557L13.5517 0.571998H17.6677L16.7717 6.2H19.8517V9.98H16.1557L15.4837 14.264H18.5637V18.044H14.8957L13.9717 23.868H9.85568L10.7797 18.044H7.69968L6.77568 23.868H2.65968L3.58368 18.044H0.475683V14.264H4.19968L4.87168 9.98H1.76368V6.2H5.48768L6.38368 0.571998ZM8.95968 9.98L8.31568 14.264H11.3957L12.0397 9.98H8.95968ZM45.2514 23.868H39.6514C39.5394 22.972 39.3434 21.992 39.0634 20.872L36.9354 12.64C36.6554 11.548 36.4314 10.26 36.1514 8.412C35.9834 9.56 35.6474 11.324 35.3114 12.64L33.2394 20.9C32.8754 22.3 32.7074 23.112 32.6234 23.868H27.0514C26.9114 23.056 26.7714 22.468 26.3514 20.844L21.8714 4.044C21.4794 2.616 21.0874 1.328 20.8074 0.571998H27.1914C27.2194 1.58 27.3594 2.476 27.5834 3.652L29.3754 12.164C29.4594 12.584 29.6554 13.9 29.9914 16.112C30.4114 13.76 30.6074 12.752 30.7754 12.164L33.0154 3.484C33.3514 2.224 33.5194 1.356 33.6314 0.571998H38.6154C38.7274 1.3 38.8954 2.084 39.2594 3.4L41.5274 12.024C41.7514 12.92 41.9474 13.844 42.3114 16.112C42.3674 15.58 42.3674 15.58 42.5354 14.404C42.6194 13.788 42.8154 12.444 42.9274 11.996L44.6914 3.652C44.9714 2.364 45.0834 1.552 45.1114 0.571998H51.4674C51.1874 1.328 50.7954 2.644 50.4314 4.044L45.9514 20.816C45.5874 22.132 45.3354 23.196 45.2514 23.868ZM69.6493 16.896H57.0493C57.3293 19.164 58.6453 20.368 60.8573 20.368C61.9773 20.368 62.9573 20.004 63.6853 19.332C64.1053 18.94 64.3013 18.632 64.5253 17.904L69.3973 19.276C68.7533 20.732 68.3333 21.376 67.5493 22.16C65.9533 23.728 63.7133 24.54 60.9413 24.54C58.1973 24.54 56.0413 23.756 54.4453 22.16C52.7933 20.48 51.8973 18.1 51.8973 15.328C51.8973 9.784 55.4533 6.116 60.8013 6.116C65.1693 6.116 68.2213 8.496 69.2013 12.668C69.4253 13.564 69.5373 14.74 69.6213 16.336C69.6213 16.448 69.6213 16.616 69.6493 16.896ZM57.1333 13.032H64.3293C63.9373 11.24 62.7333 10.288 60.8013 10.288C58.8133 10.288 57.6093 11.184 57.1333 13.032ZM77.3906 14.88V18.996C77.3906 21.628 77.4186 22.636 77.6146 23.868H71.5946C71.7906 22.636 71.8466 21.516 71.8466 19.08V4.576C71.8466 2.728 71.7906 1.804 71.6226 0.487999C72.7706 0.543999 73.5546 0.571998 75.7106 0.571998H83.8026C86.2666 0.571998 87.1906 0.543999 88.5066 0.375999V5.696C87.2746 5.556 86.1826 5.5 83.8306 5.5H77.3906V10.092H82.6546C84.8386 10.092 85.9026 10.036 87.1346 9.896V15.076C85.9026 14.936 84.7826 14.88 82.6546 14.88H77.3906ZM90.1439 0.571998H95.8279V4.772H90.1439V0.571998ZM90.0599 6.788H95.9119C95.7439 7.936 95.6879 9.056 95.6879 11.016V19.64C95.6879 21.152 95.7719 22.664 95.9119 23.868H90.0599C90.2279 22.496 90.2839 21.432 90.2839 19.64V11.016C90.2839 9.196 90.2279 8.048 90.0599 6.788ZM104.128 23.868H98.332C98.5 22.552 98.556 21.376 98.556 19.64V11.016C98.556 9.084 98.5 7.908 98.332 6.788H103.904V7.964C103.904 8.132 103.876 8.552 103.876 8.748C105.64 7.068 107.348 6.368 109.644 6.368C111.576 6.368 113.116 6.9 114.152 7.936C115.272 9.056 115.748 10.428 115.748 12.64V19.668C115.748 21.292 115.832 22.692 115.972 23.868H110.148C110.316 22.524 110.372 21.348 110.372 19.64V13.9C110.372 12.78 110.26 12.304 109.924 11.828C109.56 11.324 108.916 11.044 108.076 11.044C106.508 11.044 105.108 12.024 103.904 13.984V19.64C103.904 21.236 103.96 22.412 104.128 23.868ZM129.562 12.808V12.164C129.562 10.82 128.75 10.204 126.902 10.204C125.11 10.204 124.158 10.792 123.738 12.164L118.39 11.296C118.95 9.644 119.566 8.748 120.742 7.908C122.254 6.844 124.326 6.312 127.042 6.312C129.114 6.312 131.13 6.704 132.222 7.292C134.014 8.272 134.798 9.812 134.798 12.332V19.892C134.798 21.6 134.854 22.608 134.994 23.868H129.562V22.58C127.994 23.784 126.426 24.26 124.13 24.26C122.002 24.26 120.406 23.756 119.286 22.72C118.278 21.796 117.746 20.452 117.746 18.912C117.746 17.148 118.446 15.748 119.79 14.824C121.218 13.816 123.094 13.228 125.614 13.004C126.706 12.892 127.546 12.864 129.562 12.808ZM129.562 17.176V16.392C127.07 16.448 125.866 16.588 124.718 16.952C123.71 17.288 123.094 17.988 123.094 18.8C123.094 19.808 123.934 20.396 125.39 20.396C126.538 20.396 127.798 19.976 128.554 19.332C129.198 18.772 129.562 18.016 129.562 17.176ZM137.407 0.571998H143.259C143.091 1.748 143.035 2.896 143.035 4.8V19.64C143.035 21.32 143.091 22.384 143.259 23.868H137.407C137.575 22.608 137.631 21.656 137.631 19.64V4.8C137.631 2.812 137.575 1.636 137.407 0.571998ZM145.652 0.571998H151.504C151.336 1.748 151.28 2.896 151.28 4.8V19.64C151.28 21.32 151.336 22.384 151.504 23.868H145.652C145.82 22.608 145.876 21.656 145.876 19.64V4.8C145.876 2.812 145.82 1.636 145.652 0.571998ZM159.525 22.356L154.289 10.54C153.085 7.74 152.973 7.488 152.609 6.788H158.685C158.825 7.684 159.189 8.888 159.777 10.4L162.353 16.868L164.845 10.512C165.629 8.58 165.881 7.768 166.049 6.788H172.125C171.425 8.244 171.425 8.244 170.445 10.54L164.033 25.352C162.913 27.984 160.897 29.188 157.705 29.188C156.473 29.188 155.409 29.048 153.869 28.712L154.485 24.26C155.409 24.736 155.941 24.876 156.669 24.876C157.733 24.876 158.517 24.4 158.937 23.56L159.525 22.356ZM179.488 23.868H173.468C173.636 22.636 173.692 21.376 173.692 19.724V4.576C173.692 3.064 173.636 1.804 173.468 0.487999C174.784 0.543999 175.792 0.571998 177.584 0.571998H183.716C189.26 0.571998 192.312 3.232 192.312 8.104C192.312 13.088 189.12 16.056 183.688 16.056H179.264V19.64C179.264 21.292 179.348 22.664 179.488 23.868ZM179.264 11.296H183.436C185.396 11.296 186.544 10.204 186.544 8.272C186.544 6.34 185.452 5.332 183.436 5.332H179.264V11.296ZM194.011 0.571998H199.863C199.695 1.748 199.639 2.896 199.639 4.8V19.64C199.639 21.32 199.695 22.384 199.863 23.868H194.011C194.179 22.608 194.235 21.656 194.235 19.64V4.8C194.235 2.812 194.179 1.636 194.011 0.571998ZM213.484 12.808V12.164C213.484 10.82 212.672 10.204 210.824 10.204C209.032 10.204 208.08 10.792 207.66 12.164L202.312 11.296C202.872 9.644 203.488 8.748 204.664 7.908C206.176 6.844 208.248 6.312 210.964 6.312C213.036 6.312 215.052 6.704 216.144 7.292C217.936 8.272 218.72 9.812 218.72 12.332V19.892C218.72 21.6 218.776 22.608 218.916 23.868H213.484V22.58C211.916 23.784 210.348 24.26 208.052 24.26C205.924 24.26 204.328 23.756 203.208 22.72C202.2 21.796 201.668 20.452 201.668 18.912C201.668 17.148 202.368 15.748 203.712 14.824C205.14 13.816 207.016 13.228 209.536 13.004C210.628 12.892 211.468 12.864 213.484 12.808ZM213.484 17.176V16.392C210.992 16.448 209.788 16.588 208.64 16.952C207.632 17.288 207.016 17.988 207.016 18.8C207.016 19.808 207.856 20.396 209.312 20.396C210.46 20.396 211.72 19.976 212.476 19.332C213.12 18.772 213.484 18.016 213.484 17.176ZM226.957 22.356L221.721 10.54C220.517 7.74 220.405 7.488 220.041 6.788H226.117C226.257 7.684 226.621 8.888 227.209 10.4L229.785 16.868L232.277 10.512C233.061 8.58 233.313 7.768 233.481 6.788H239.557C238.857 8.244 238.857 8.244 237.877 10.54L231.465 25.352C230.345 27.984 228.329 29.188 225.137 29.188C223.905 29.188 222.841 29.048 221.301 28.712L221.917 24.26C222.841 24.736 223.373 24.876 224.101 24.876C225.165 24.876 225.949 24.4 226.369 23.56L226.957 22.356ZM257.671 16.896H245.071C245.351 19.164 246.667 20.368 248.879 20.368C249.999 20.368 250.979 20.004 251.707 19.332C252.127 18.94 252.323 18.632 252.547 17.904L257.419 19.276C256.775 20.732 256.355 21.376 255.571 22.16C253.975 23.728 251.735 24.54 248.963 24.54C246.219 24.54 244.063 23.756 242.467 22.16C240.815 20.48 239.919 18.1 239.919 15.328C239.919 9.784 243.475 6.116 248.823 6.116C253.191 6.116 256.243 8.496 257.223 12.668C257.447 13.564 257.559 14.74 257.643 16.336C257.643 16.448 257.643 16.616 257.671 16.896ZM245.155 13.032H252.351C251.959 11.24 250.755 10.288 248.823 10.288C246.835 10.288 245.631 11.184 245.155 13.032ZM272.441 23.868V22.972C272.441 22.804 272.441 22.608 272.469 22.356C270.593 23.868 269.165 24.372 266.813 24.372C261.717 24.372 258.637 20.956 258.637 15.3C258.637 12.388 259.477 10.064 261.045 8.468C262.473 7.04 264.433 6.284 266.729 6.284C268.997 6.284 270.621 6.872 272.469 8.356C272.441 7.936 272.441 7.684 272.441 7.292V4.968C272.441 3.008 272.385 1.804 272.217 0.571998H277.957C277.789 1.748 277.733 3.092 277.733 4.968V19.472C277.733 21.348 277.789 22.496 277.957 23.868H272.441ZM268.045 10.568C265.609 10.568 264.069 12.388 264.069 15.328C264.069 16.924 264.517 18.212 265.357 19.024C266.029 19.696 267.037 20.088 268.073 20.088C270.565 20.088 272.385 18.016 272.385 15.244C272.385 12.528 270.593 10.568 268.045 10.568Z"/>
</mask>
<g filter="url(#filter0_i_40_391)">
<path d="M6.38368 0.571998H10.4717L9.57568 6.2H12.6557L13.5517 0.571998H17.6677L16.7717 6.2H19.8517V9.98H16.1557L15.4837 14.264H18.5637V18.044H14.8957L13.9717 23.868H9.85568L10.7797 18.044H7.69968L6.77568 23.868H2.65968L3.58368 18.044H0.475683V14.264H4.19968L4.87168 9.98H1.76368V6.2H5.48768L6.38368 0.571998ZM8.95968 9.98L8.31568 14.264H11.3957L12.0397 9.98H8.95968ZM45.2514 23.868H39.6514C39.5394 22.972 39.3434 21.992 39.0634 20.872L36.9354 12.64C36.6554 11.548 36.4314 10.26 36.1514 8.412C35.9834 9.56 35.6474 11.324 35.3114 12.64L33.2394 20.9C32.8754 22.3 32.7074 23.112 32.6234 23.868H27.0514C26.9114 23.056 26.7714 22.468 26.3514 20.844L21.8714 4.044C21.4794 2.616 21.0874 1.328 20.8074 0.571998H27.1914C27.2194 1.58 27.3594 2.476 27.5834 3.652L29.3754 12.164C29.4594 12.584 29.6554 13.9 29.9914 16.112C30.4114 13.76 30.6074 12.752 30.7754 12.164L33.0154 3.484C33.3514 2.224 33.5194 1.356 33.6314 0.571998H38.6154C38.7274 1.3 38.8954 2.084 39.2594 3.4L41.5274 12.024C41.7514 12.92 41.9474 13.844 42.3114 16.112C42.3674 15.58 42.3674 15.58 42.5354 14.404C42.6194 13.788 42.8154 12.444 42.9274 11.996L44.6914 3.652C44.9714 2.364 45.0834 1.552 45.1114 0.571998H51.4674C51.1874 1.328 50.7954 2.644 50.4314 4.044L45.9514 20.816C45.5874 22.132 45.3354 23.196 45.2514 23.868ZM69.6493 16.896H57.0493C57.3293 19.164 58.6453 20.368 60.8573 20.368C61.9773 20.368 62.9573 20.004 63.6853 19.332C64.1053 18.94 64.3013 18.632 64.5253 17.904L69.3973 19.276C68.7533 20.732 68.3333 21.376 67.5493 22.16C65.9533 23.728 63.7133 24.54 60.9413 24.54C58.1973 24.54 56.0413 23.756 54.4453 22.16C52.7933 20.48 51.8973 18.1 51.8973 15.328C51.8973 9.784 55.4533 6.116 60.8013 6.116C65.1693 6.116 68.2213 8.496 69.2013 12.668C69.4253 13.564 69.5373 14.74 69.6213 16.336C69.6213 16.448 69.6213 16.616 69.6493 16.896ZM57.1333 13.032H64.3293C63.9373 11.24 62.7333 10.288 60.8013 10.288C58.8133 10.288 57.6093 11.184 57.1333 13.032ZM77.3906 14.88V18.996C77.3906 21.628 77.4186 22.636 77.6146 23.868H71.5946C71.7906 22.636 71.8466 21.516 71.8466 19.08V4.576C71.8466 2.728 71.7906 1.804 71.6226 0.487999C72.7706 0.543999 73.5546 0.571998 75.7106 0.571998H83.8026C86.2666 0.571998 87.1906 0.543999 88.5066 0.375999V5.696C87.2746 5.556 86.1826 5.5 83.8306 5.5H77.3906V10.092H82.6546C84.8386 10.092 85.9026 10.036 87.1346 9.896V15.076C85.9026 14.936 84.7826 14.88 82.6546 14.88H77.3906ZM90.1439 0.571998H95.8279V4.772H90.1439V0.571998ZM90.0599 6.788H95.9119C95.7439 7.936 95.6879 9.056 95.6879 11.016V19.64C95.6879 21.152 95.7719 22.664 95.9119 23.868H90.0599C90.2279 22.496 90.2839 21.432 90.2839 19.64V11.016C90.2839 9.196 90.2279 8.048 90.0599 6.788ZM104.128 23.868H98.332C98.5 22.552 98.556 21.376 98.556 19.64V11.016C98.556 9.084 98.5 7.908 98.332 6.788H103.904V7.964C103.904 8.132 103.876 8.552 103.876 8.748C105.64 7.068 107.348 6.368 109.644 6.368C111.576 6.368 113.116 6.9 114.152 7.936C115.272 9.056 115.748 10.428 115.748 12.64V19.668C115.748 21.292 115.832 22.692 115.972 23.868H110.148C110.316 22.524 110.372 21.348 110.372 19.64V13.9C110.372 12.78 110.26 12.304 109.924 11.828C109.56 11.324 108.916 11.044 108.076 11.044C106.508 11.044 105.108 12.024 103.904 13.984V19.64C103.904 21.236 103.96 22.412 104.128 23.868ZM129.562 12.808V12.164C129.562 10.82 128.75 10.204 126.902 10.204C125.11 10.204 124.158 10.792 123.738 12.164L118.39 11.296C118.95 9.644 119.566 8.748 120.742 7.908C122.254 6.844 124.326 6.312 127.042 6.312C129.114 6.312 131.13 6.704 132.222 7.292C134.014 8.272 134.798 9.812 134.798 12.332V19.892C134.798 21.6 134.854 22.608 134.994 23.868H129.562V22.58C127.994 23.784 126.426 24.26 124.13 24.26C122.002 24.26 120.406 23.756 119.286 22.72C118.278 21.796 117.746 20.452 117.746 18.912C117.746 17.148 118.446 15.748 119.79 14.824C121.218 13.816 123.094 13.228 125.614 13.004C126.706 12.892 127.546 12.864 129.562 12.808ZM129.562 17.176V16.392C127.07 16.448 125.866 16.588 124.718 16.952C123.71 17.288 123.094 17.988 123.094 18.8C123.094 19.808 123.934 20.396 125.39 20.396C126.538 20.396 127.798 19.976 128.554 19.332C129.198 18.772 129.562 18.016 129.562 17.176ZM137.407 0.571998H143.259C143.091 1.748 143.035 2.896 143.035 4.8V19.64C143.035 21.32 143.091 22.384 143.259 23.868H137.407C137.575 22.608 137.631 21.656 137.631 19.64V4.8C137.631 2.812 137.575 1.636 137.407 0.571998ZM145.652 0.571998H151.504C151.336 1.748 151.28 2.896 151.28 4.8V19.64C151.28 21.32 151.336 22.384 151.504 23.868H145.652C145.82 22.608 145.876 21.656 145.876 19.64V4.8C145.876 2.812 145.82 1.636 145.652 0.571998ZM159.525 22.356L154.289 10.54C153.085 7.74 152.973 7.488 152.609 6.788H158.685C158.825 7.684 159.189 8.888 159.777 10.4L162.353 16.868L164.845 10.512C165.629 8.58 165.881 7.768 166.049 6.788H172.125C171.425 8.244 171.425 8.244 170.445 10.54L164.033 25.352C162.913 27.984 160.897 29.188 157.705 29.188C156.473 29.188 155.409 29.048 153.869 28.712L154.485 24.26C155.409 24.736 155.941 24.876 156.669 24.876C157.733 24.876 158.517 24.4 158.937 23.56L159.525 22.356ZM179.488 23.868H173.468C173.636 22.636 173.692 21.376 173.692 19.724V4.576C173.692 3.064 173.636 1.804 173.468 0.487999C174.784 0.543999 175.792 0.571998 177.584 0.571998H183.716C189.26 0.571998 192.312 3.232 192.312 8.104C192.312 13.088 189.12 16.056 183.688 16.056H179.264V19.64C179.264 21.292 179.348 22.664 179.488 23.868ZM179.264 11.296H183.436C185.396 11.296 186.544 10.204 186.544 8.272C186.544 6.34 185.452 5.332 183.436 5.332H179.264V11.296ZM194.011 0.571998H199.863C199.695 1.748 199.639 2.896 199.639 4.8V19.64C199.639 21.32 199.695 22.384 199.863 23.868H194.011C194.179 22.608 194.235 21.656 194.235 19.64V4.8C194.235 2.812 194.179 1.636 194.011 0.571998ZM213.484 12.808V12.164C213.484 10.82 212.672 10.204 210.824 10.204C209.032 10.204 208.08 10.792 207.66 12.164L202.312 11.296C202.872 9.644 203.488 8.748 204.664 7.908C206.176 6.844 208.248 6.312 210.964 6.312C213.036 6.312 215.052 6.704 216.144 7.292C217.936 8.272 218.72 9.812 218.72 12.332V19.892C218.72 21.6 218.776 22.608 218.916 23.868H213.484V22.58C211.916 23.784 210.348 24.26 208.052 24.26C205.924 24.26 204.328 23.756 203.208 22.72C202.2 21.796 201.668 20.452 201.668 18.912C201.668 17.148 202.368 15.748 203.712 14.824C205.14 13.816 207.016 13.228 209.536 13.004C210.628 12.892 211.468 12.864 213.484 12.808ZM213.484 17.176V16.392C210.992 16.448 209.788 16.588 208.64 16.952C207.632 17.288 207.016 17.988 207.016 18.8C207.016 19.808 207.856 20.396 209.312 20.396C210.46 20.396 211.72 19.976 212.476 19.332C213.12 18.772 213.484 18.016 213.484 17.176ZM226.957 22.356L221.721 10.54C220.517 7.74 220.405 7.488 220.041 6.788H226.117C226.257 7.684 226.621 8.888 227.209 10.4L229.785 16.868L232.277 10.512C233.061 8.58 233.313 7.768 233.481 6.788H239.557C238.857 8.244 238.857 8.244 237.877 10.54L231.465 25.352C230.345 27.984 228.329 29.188 225.137 29.188C223.905 29.188 222.841 29.048 221.301 28.712L221.917 24.26C222.841 24.736 223.373 24.876 224.101 24.876C225.165 24.876 225.949 24.4 226.369 23.56L226.957 22.356ZM257.671 16.896H245.071C245.351 19.164 246.667 20.368 248.879 20.368C249.999 20.368 250.979 20.004 251.707 19.332C252.127 18.94 252.323 18.632 252.547 17.904L257.419 19.276C256.775 20.732 256.355 21.376 255.571 22.16C253.975 23.728 251.735 24.54 248.963 24.54C246.219 24.54 244.063 23.756 242.467 22.16C240.815 20.48 239.919 18.1 239.919 15.328C239.919 9.784 243.475 6.116 248.823 6.116C253.191 6.116 256.243 8.496 257.223 12.668C257.447 13.564 257.559 14.74 257.643 16.336C257.643 16.448 257.643 16.616 257.671 16.896ZM245.155 13.032H252.351C251.959 11.24 250.755 10.288 248.823 10.288C246.835 10.288 245.631 11.184 245.155 13.032ZM272.441 23.868V22.972C272.441 22.804 272.441 22.608 272.469 22.356C270.593 23.868 269.165 24.372 266.813 24.372C261.717 24.372 258.637 20.956 258.637 15.3C258.637 12.388 259.477 10.064 261.045 8.468C262.473 7.04 264.433 6.284 266.729 6.284C268.997 6.284 270.621 6.872 272.469 8.356C272.441 7.936 272.441 7.684 272.441 7.292V4.968C272.441 3.008 272.385 1.804 272.217 0.571998H277.957C277.789 1.748 277.733 3.092 277.733 4.968V19.472C277.733 21.348 277.789 22.496 277.957 23.868H272.441ZM268.045 10.568C265.609 10.568 264.069 12.388 264.069 15.328C264.069 16.924 264.517 18.212 265.357 19.024C266.029 19.696 267.037 20.088 268.073 20.088C270.565 20.088 272.385 18.016 272.385 15.244C272.385 12.528 270.593 10.568 268.045 10.568Z" fill="url(#paint0_linear_40_391)"/>
</g>
<path d="M6.38368 0.571999V-0.428001H5.53029L5.39612 0.414774L6.38368 0.571999ZM10.4717 0.571999L11.4592 0.729222L11.6435 -0.428001H10.4717V0.571999ZM9.57568 6.2L8.58812 6.04278L8.40389 7.2H9.57568V6.2ZM12.6557 6.2V7.2H13.5091L13.6432 6.35722L12.6557 6.2ZM13.5517 0.571999V-0.428001H12.6983L12.5641 0.414775L13.5517 0.571999ZM17.6677 0.571999L18.6552 0.729222L18.8395 -0.428001H17.6677V0.571999ZM16.7717 6.2L15.7841 6.04278L15.5999 7.2H16.7717V6.2ZM19.8517 6.2H20.8517V5.2H19.8517V6.2ZM19.8517 9.98V10.98H20.8517V9.98H19.8517ZM16.1557 9.98V8.98H15.3003L15.1678 9.82503L16.1557 9.98ZM15.4837 14.264L14.4958 14.109L14.3146 15.264H15.4837V14.264ZM18.5637 14.264H19.5637V13.264H18.5637V14.264ZM18.5637 18.044V19.044H19.5637V18.044H18.5637ZM14.8957 18.044V17.044H14.0418L13.908 17.8873L14.8957 18.044ZM13.9717 23.868V24.868H14.8255L14.9593 24.0247L13.9717 23.868ZM9.85568 23.868L8.86804 23.7113L8.68452 24.868H9.85568V23.868ZM10.7797 18.044L11.7673 18.2007L11.9508 17.044H10.7797V18.044ZM7.69968 18.044V17.044H6.84583L6.71204 17.8873L7.69968 18.044ZM6.77568 23.868V24.868H7.62954L7.76333 24.0247L6.77568 23.868ZM2.65968 23.868L1.67204 23.7113L1.48852 24.868H2.65968V23.868ZM3.58368 18.044L4.57133 18.2007L4.75484 17.044H3.58368V18.044ZM0.475683 18.044H-0.524317V19.044H0.475683V18.044ZM0.475683 14.264V13.264H-0.524317V14.264H0.475683ZM4.19968 14.264V15.264H5.05505L5.1876 14.419L4.19968 14.264ZM4.87168 9.98L5.8596 10.135L6.04078 8.98H4.87168V9.98ZM1.76368 9.98H0.763683V10.98H1.76368V9.98ZM1.76368 6.2V5.2H0.763683V6.2H1.76368ZM5.48768 6.2V7.2H6.34107L6.47525 6.35722L5.48768 6.2ZM8.95968 9.98V8.98H8.09877L7.97079 9.83134L8.95968 9.98ZM8.31568 14.264L7.3268 14.1153L7.15412 15.264H8.31568V14.264ZM11.3957 14.264V15.264H12.2566L12.3846 14.4127L11.3957 14.264ZM12.0397 9.98L13.0286 10.1287L13.2012 8.98H12.0397V9.98ZM6.38368 1.572H10.4717V-0.428001H6.38368V1.572ZM9.48412 0.414774L8.58812 6.04278L10.5632 6.35722L11.4592 0.729222L9.48412 0.414774ZM9.57568 7.2H12.6557V5.2H9.57568V7.2ZM13.6432 6.35722L14.5392 0.729222L12.5641 0.414775L11.6681 6.04278L13.6432 6.35722ZM13.5517 1.572H17.6677V-0.428001H13.5517V1.572ZM16.6801 0.414774L15.7841 6.04278L17.7592 6.35722L18.6552 0.729222L16.6801 0.414774ZM16.7717 7.2H19.8517V5.2H16.7717V7.2ZM18.8517 6.2V9.98H20.8517V6.2H18.8517ZM19.8517 8.98H16.1557V10.98H19.8517V8.98ZM15.1678 9.82503L14.4958 14.109L16.4716 14.419L17.1436 10.135L15.1678 9.82503ZM15.4837 15.264H18.5637V13.264H15.4837V15.264ZM17.5637 14.264V18.044H19.5637V14.264H17.5637ZM18.5637 17.044H14.8957V19.044H18.5637V17.044ZM13.908 17.8873L12.984 23.7113L14.9593 24.0247L15.8833 18.2007L13.908 17.8873ZM13.9717 22.868H9.85568V24.868H13.9717V22.868ZM10.8433 24.0247L11.7673 18.2007L9.79204 17.8873L8.86804 23.7113L10.8433 24.0247ZM10.7797 17.044H7.69968V19.044H10.7797V17.044ZM6.71204 17.8873L5.78804 23.7113L7.76333 24.0247L8.68733 18.2007L6.71204 17.8873ZM6.77568 22.868H2.65968V24.868H6.77568V22.868ZM3.64733 24.0247L4.57133 18.2007L2.59604 17.8873L1.67204 23.7113L3.64733 24.0247ZM3.58368 17.044H0.475683V19.044H3.58368V17.044ZM1.47568 18.044V14.264H-0.524317V18.044H1.47568ZM0.475683 15.264H4.19968V13.264H0.475683V15.264ZM5.1876 14.419L5.8596 10.135L3.88376 9.82503L3.21176 14.109L5.1876 14.419ZM4.87168 8.98H1.76368V10.98H4.87168V8.98ZM2.76368 9.98V6.2H0.763683V9.98H2.76368ZM1.76368 7.2H5.48768V5.2H1.76368V7.2ZM6.47525 6.35722L7.37125 0.729222L5.39612 0.414774L4.50012 6.04278L6.47525 6.35722ZM7.97079 9.83134L7.3268 14.1153L9.30457 14.4127L9.94857 10.1287L7.97079 9.83134ZM8.31568 15.264H11.3957V13.264H8.31568V15.264ZM12.3846 14.4127L13.0286 10.1287L11.0508 9.83134L10.4068 14.1153L12.3846 14.4127ZM12.0397 8.98H8.95968V10.98H12.0397V8.98ZM45.2514 23.868V24.868H46.1342L46.2437 23.992L45.2514 23.868ZM39.6514 23.868L38.6591 23.992L38.7686 24.868H39.6514V23.868ZM39.0634 20.872L40.0336 20.6295L40.0316 20.6217L39.0634 20.872ZM36.9354 12.64L35.9667 12.8884L35.9672 12.8903L36.9354 12.64ZM36.1514 8.412L37.1401 8.26219L35.1619 8.2672L36.1514 8.412ZM35.3114 12.64L34.3425 12.3926L34.3415 12.3967L35.3114 12.64ZM33.2394 20.9L34.2073 21.1516L34.2094 21.1433L33.2394 20.9ZM32.6234 23.868V24.868H33.5184L33.6173 23.9784L32.6234 23.868ZM27.0514 23.868L26.0659 24.0379L26.2091 24.868H27.0514V23.868ZM26.3514 20.844L27.3196 20.5936L27.3176 20.5863L26.3514 20.844ZM21.8714 4.044L22.8377 3.78633L22.8357 3.77928L21.8714 4.044ZM20.8074 0.571999V-0.428001H19.3707L19.8697 0.919312L20.8074 0.571999ZM27.1914 0.571999L28.191 0.544231L28.164 -0.428001H27.1914V0.571999ZM27.5834 3.652L26.6011 3.83911L26.6029 3.84858L26.6049 3.85801L27.5834 3.652ZM29.3754 12.164L30.356 11.9679L30.354 11.958L29.3754 12.164ZM29.9914 16.112L29.0027 16.2622L30.9758 16.2878L29.9914 16.112ZM30.7754 12.164L31.7369 12.4387L31.7405 12.4263L31.7437 12.4139L30.7754 12.164ZM33.0154 3.484L32.0491 3.22633L32.0471 3.23412L33.0154 3.484ZM33.6314 0.571999V-0.428001H32.7641L32.6415 0.430576L33.6314 0.571999ZM38.6154 0.571999L39.6038 0.419941L39.4733 -0.428001H38.6154V0.571999ZM39.2594 3.4L40.2266 3.14564L40.2232 3.13341L39.2594 3.4ZM41.5274 12.024L42.4976 11.7814L42.4945 11.7697L41.5274 12.024ZM42.3114 16.112L41.324 16.2705L43.3059 16.2167L42.3114 16.112ZM42.5354 14.404L43.5254 14.5454L43.5262 14.5391L42.5354 14.404ZM42.9274 11.996L43.8975 12.2385L43.902 12.2208L43.9058 12.2028L42.9274 11.996ZM44.6914 3.652L43.7142 3.43956L43.713 3.44516L44.6914 3.652ZM45.1114 0.571999V-0.428001H44.1396L44.1118 0.543437L45.1114 0.571999ZM51.4674 0.571999L52.4052 0.919312L52.9042 -0.428001H51.4674V0.571999ZM50.4314 4.044L51.3976 4.30207L51.3992 4.29563L50.4314 4.044ZM45.9514 20.816L46.9153 21.0826L46.9175 21.0741L45.9514 20.816ZM45.2514 22.868H39.6514V24.868H45.2514V22.868ZM40.6437 23.744C40.5252 22.7959 40.3198 21.7744 40.0335 20.6295L38.0933 21.1145C38.367 22.2096 38.5536 23.1481 38.6591 23.992L40.6437 23.744ZM40.0316 20.6217L37.9036 12.3897L35.9672 12.8903L38.0952 21.1223L40.0316 20.6217ZM37.9041 12.3916C37.6377 11.3528 37.4199 10.1086 37.1401 8.26219L35.1627 8.5618C35.4429 10.4114 35.6731 11.7432 35.9667 12.8884L37.9041 12.3916ZM35.1619 8.2672C34.9982 9.38594 34.6686 11.1152 34.3425 12.3926L36.2803 12.8874C36.6262 11.5328 36.9686 9.73406 37.1409 8.5568L35.1619 8.2672ZM34.3415 12.3967L32.2695 20.6567L34.2094 21.1433L36.2814 12.8833L34.3415 12.3967ZM32.2716 20.6484C31.9041 22.0619 31.7216 22.9292 31.6295 23.7576L33.6173 23.9784C33.6932 23.2948 33.8468 22.5381 34.2072 21.1516L32.2716 20.6484ZM32.6234 22.868H27.0514V24.868H32.6234V22.868ZM28.0369 23.6981C27.8892 22.8416 27.7398 22.2184 27.3196 20.5936L25.3833 21.0944C25.803 22.7176 25.9336 23.2704 26.0659 24.0379L28.0369 23.6981ZM27.3176 20.5863L22.8376 3.78634L20.9052 4.30166L25.3852 21.1017L27.3176 20.5863ZM22.8357 3.77928C22.442 2.34509 22.0408 1.02291 21.7452 0.224684L19.8697 0.919312C20.134 1.63309 20.5168 2.88691 20.9071 4.30872L22.8357 3.77928ZM20.8074 1.572H27.1914V-0.428001H20.8074V1.572ZM26.1918 0.599766C26.2221 1.6895 26.3743 2.64853 26.6011 3.83911L28.5657 3.46489C28.3445 2.30347 28.2167 1.4705 28.191 0.544231L26.1918 0.599766ZM26.6049 3.85801L28.3969 12.37L30.354 11.958L28.562 3.44599L26.6049 3.85801ZM28.3948 12.3601C28.4728 12.7498 28.663 14.0253 29.0027 16.2622L30.9801 15.9618C30.6478 13.7747 30.4461 12.4182 30.356 11.9679L28.3948 12.3601ZM30.9758 16.2878C31.3999 13.9132 31.5863 12.9659 31.7369 12.4387L29.8139 11.8893C29.6285 12.5381 29.423 13.6068 29.007 15.9362L30.9758 16.2878ZM31.7437 12.4139L33.9837 3.73388L32.0471 3.23412L29.8071 11.9141L31.7437 12.4139ZM33.9816 3.74166C34.3267 2.44774 34.5032 1.54079 34.6214 0.71342L32.6415 0.430576C32.5357 1.1712 32.3761 2.00026 32.0492 3.22634L33.9816 3.74166ZM33.6314 1.572H38.6154V-0.428001H33.6314V1.572ZM37.627 0.724055C37.7468 1.50263 37.925 2.32671 38.2956 3.66658L40.2232 3.13341C39.8658 1.84129 39.708 1.09737 39.6038 0.419941L37.627 0.724055ZM38.2923 3.65434L40.5603 12.2783L42.4945 11.7697L40.2265 3.14566L38.2923 3.65434ZM40.5573 12.2665C40.7717 13.1244 40.9625 14.0177 41.324 16.2705L43.2988 15.9535C42.9323 13.6703 42.7311 12.7156 42.4975 11.7815L40.5573 12.2665ZM43.3059 16.2167C43.3598 15.7045 43.3575 15.7202 43.5254 14.5454L41.5455 14.2626C41.3773 15.4398 41.375 15.4555 41.3169 16.0073L43.3059 16.2167ZM43.5262 14.5391C43.6136 13.8986 43.8021 12.6204 43.8975 12.2385L41.9573 11.7535C41.8287 12.2676 41.6252 13.6774 41.5446 14.2689L43.5262 14.5391ZM43.9058 12.2028L45.6698 3.85884L43.713 3.44516L41.949 11.7892L43.9058 12.2028ZM45.6686 3.86443C45.9573 2.53647 46.0807 1.66035 46.111 0.600559L44.1118 0.543437C44.0861 1.44365 43.9855 2.19153 43.7142 3.43957L45.6686 3.86443ZM45.1114 1.572H51.4674V-0.428001H45.1114V1.572ZM50.5297 0.224685C50.2322 1.02776 49.8303 2.38175 49.4636 3.79237L51.3992 4.29563C51.7605 2.90625 52.1426 1.62824 52.4052 0.919312L50.5297 0.224685ZM49.4653 3.78593L44.9853 20.5579L46.9175 21.0741L51.3975 4.30206L49.4653 3.78593ZM44.9876 20.5494C44.6236 21.8652 44.3531 22.9921 44.2591 23.744L46.2437 23.992C46.3177 23.3999 46.5512 22.3988 46.9152 21.0826L44.9876 20.5494ZM69.6493 16.896V17.896H70.7542L70.6443 16.7965L69.6493 16.896ZM57.0492 16.896V15.896H55.9182L56.0568 17.0185L57.0492 16.896ZM63.6852 19.332L64.3635 20.0668L64.3676 20.0631L63.6852 19.332ZM64.5253 17.904L64.7963 16.9414L63.8566 16.6768L63.5695 17.6099L64.5253 17.904ZM69.3972 19.276L70.3118 19.6805L70.7782 18.626L69.6683 18.3134L69.3972 19.276ZM67.5492 22.16L68.2501 22.8734L68.2564 22.8671L67.5492 22.16ZM54.4453 22.16L53.7322 22.8612L53.7381 22.8671L54.4453 22.16ZM69.2012 12.668L68.2278 12.8967L68.2294 12.9036L68.2311 12.9105L69.2012 12.668ZM69.6213 16.336H70.6213V16.3097L70.6199 16.2834L69.6213 16.336ZM57.1332 13.032L56.1649 12.7826L55.843 14.032H57.1332V13.032ZM64.3293 13.032V14.032H65.5716L65.3062 12.8183L64.3293 13.032ZM69.6493 15.896H57.0492V17.896H69.6493V15.896ZM56.0568 17.0185C56.217 18.3167 56.6905 19.4326 57.5547 20.2212C58.4232 21.0137 59.5682 21.368 60.8573 21.368V19.368C59.9343 19.368 59.3153 19.1203 58.9028 18.7438C58.486 18.3634 58.1615 17.7433 58.0417 16.7735L56.0568 17.0185ZM60.8573 21.368C62.1987 21.368 63.4299 20.9286 64.3635 20.0668L63.007 18.5972C62.4846 19.0794 61.7558 19.368 60.8573 19.368V21.368ZM64.3676 20.0631C64.6199 19.8276 64.8442 19.5804 65.0375 19.2565C65.2252 18.9419 65.3581 18.5976 65.481 18.1981L63.5695 17.6099C63.4684 17.9384 63.3913 18.1121 63.32 18.2315C63.2543 18.3416 63.1706 18.4444 63.0029 18.6009L64.3676 20.0631ZM64.2542 18.8666L69.1262 20.2386L69.6683 18.3134L64.7963 16.9414L64.2542 18.8666ZM68.4827 18.8715C67.8711 20.2543 67.5128 20.7822 66.8421 21.4529L68.2564 22.8671C69.1537 21.9698 69.6354 21.2097 70.3118 19.6805L68.4827 18.8715ZM66.8484 21.4467C65.4804 22.7907 63.5148 23.54 60.9413 23.54V25.54C63.9117 25.54 66.4261 24.6653 68.2501 22.8733L66.8484 21.4467ZM60.9413 23.54C58.3986 23.54 56.52 22.8206 55.1524 21.4529L53.7381 22.8671C55.5625 24.6914 57.9959 25.54 60.9413 25.54V23.54ZM55.1583 21.4589C53.7201 19.9963 52.8972 17.8836 52.8972 15.328H50.8972C50.8972 18.3164 51.8664 20.9637 53.7322 22.8611L55.1583 21.4589ZM52.8972 15.328C52.8972 12.7722 53.7134 10.7328 55.0625 9.33829C56.4087 7.94672 58.3634 7.116 60.8013 7.116V5.116C57.8911 5.116 55.3938 6.11927 53.625 7.94771C51.8591 9.77316 50.8972 12.3398 50.8972 15.328H52.8972ZM60.8013 7.116C62.8007 7.116 64.4289 7.65839 65.6567 8.61602C66.8831 9.57255 67.7821 10.9994 68.2278 12.8967L70.1748 12.4393C69.6404 10.1646 68.5234 8.31545 66.8868 7.03898C65.2516 5.76361 63.1698 5.116 60.8013 5.116V7.116ZM68.2311 12.9105C68.4294 13.7035 68.5387 14.7932 68.6226 16.3886L70.6199 16.2834C70.5358 14.6868 70.4211 13.4245 70.1714 12.4255L68.2311 12.9105ZM68.6213 16.336C68.6213 16.4643 68.6216 16.669 68.6542 16.9955L70.6443 16.7965C70.6209 16.563 70.6213 16.4317 70.6213 16.336H68.6213ZM57.1332 14.032H64.3293V12.032H57.1332V14.032ZM65.3062 12.8183C65.0716 11.7459 64.5711 10.8347 63.7583 10.1999C62.9492 9.56791 61.9307 9.288 60.8013 9.288V11.288C61.6038 11.288 62.1533 11.4841 62.5272 11.7761C62.8974 12.0653 63.1949 12.5261 63.3523 13.2457L65.3062 12.8183ZM60.8013 9.288C59.6601 9.288 58.6315 9.54599 57.8017 10.1659C56.9669 10.7896 56.4446 11.6966 56.1649 12.7826L58.1016 13.2814C58.2979 12.5194 58.6156 12.0544 58.9988 11.7681C59.387 11.478 59.9544 11.288 60.8013 11.288V9.288ZM77.3906 14.88V13.88H76.3906V14.88H77.3906ZM77.6146 23.868V24.868H78.7863L78.6022 23.7109L77.6146 23.868ZM71.5946 23.868L70.607 23.7109L70.4229 24.868H71.5946V23.868ZM71.6226 0.487999L71.6713 -0.510813L70.4795 -0.568947L70.6306 0.614632L71.6226 0.487999ZM88.5066 0.375999H89.5066V-0.759775L88.38 -0.615951L88.5066 0.375999ZM88.5066 5.696L88.3937 6.6896L89.5066 6.81607V5.696H88.5066ZM77.3906 5.5V4.5H76.3906V5.5H77.3906ZM77.3906 10.092H76.3906V11.092H77.3906V10.092ZM87.1346 9.896H88.1346V8.77593L87.0217 8.90239L87.1346 9.896ZM87.1346 15.076L87.0217 16.0696L88.1346 16.1961V15.076H87.1346ZM76.3906 14.88V18.996H78.3906V14.88H76.3906ZM76.3906 18.996C76.3906 21.6214 76.4169 22.7044 76.627 24.0251L78.6022 23.7109C78.4203 22.5676 78.3906 21.6346 78.3906 18.996H76.3906ZM77.6146 22.868H71.5946V24.868H77.6146V22.868ZM72.5822 24.0251C72.7911 22.7118 72.8466 21.5267 72.8466 19.08H70.8466C70.8466 21.5053 70.7901 22.5602 70.607 23.7109L72.5822 24.0251ZM72.8466 19.08V4.576H70.8466V19.08H72.8466ZM72.8466 4.576C72.8466 2.69654 72.7891 1.72893 72.6145 0.361367L70.6306 0.614632C70.7921 1.87907 70.8466 2.75946 70.8466 4.576H72.8466ZM71.5739 1.48681C72.7399 1.54369 73.5402 1.572 75.7106 1.572V-0.428001C73.5689 -0.428001 72.8013 -0.455693 71.6713 -0.510813L71.5739 1.48681ZM75.7106 1.572H83.8026V-0.428001H75.7106V1.572ZM83.8026 1.572C86.2714 1.572 87.2497 1.54457 88.6332 1.36795L88.38 -0.615951C87.1315 -0.456575 86.2618 -0.428001 83.8026 -0.428001V1.572ZM87.5066 0.375999V5.696H89.5066V0.375999H87.5066ZM88.6195 4.70239C87.3348 4.55641 86.2011 4.5 83.8306 4.5V6.5C86.1641 6.5 87.2143 6.55559 88.3937 6.6896L88.6195 4.70239ZM83.8306 4.5H77.3906V6.5H83.8306V4.5ZM76.3906 5.5V10.092H78.3906V5.5H76.3906ZM77.3906 11.092H82.6546V9.092H77.3906V11.092ZM82.6546 11.092C84.86 11.092 85.9647 11.0354 87.2475 10.8896L87.0217 8.90239C85.8405 9.03662 84.8172 9.092 82.6546 9.092V11.092ZM86.1346 9.896V15.076H88.1346V9.896H86.1346ZM87.2475 14.0824C85.9642 13.9366 84.8032 13.88 82.6546 13.88V15.88C84.7619 15.88 85.841 15.9354 87.0217 16.0696L87.2475 14.0824ZM82.6546 13.88H77.3906V15.88H82.6546V13.88ZM90.1439 0.571999V-0.428001H89.1439V0.571999H90.1439ZM95.8279 0.571999H96.8279V-0.428001H95.8279V0.571999ZM95.8279 4.772V5.772H96.8279V4.772H95.8279ZM90.1439 4.772H89.1439V5.772H90.1439V4.772ZM90.0599 6.788V5.788H88.9178L89.0687 6.92016L90.0599 6.788ZM95.9119 6.788L96.9014 6.9328L97.0689 5.788H95.9119V6.788ZM95.9119 23.868V24.868H97.035L96.9052 23.7525L95.9119 23.868ZM90.0599 23.868L89.0674 23.7465L88.93 24.868H90.0599V23.868ZM90.1439 1.572H95.8279V-0.428001H90.1439V1.572ZM94.8279 0.571999V4.772H96.8279V0.571999H94.8279ZM95.8279 3.772H90.1439V5.772H95.8279V3.772ZM91.1439 4.772V0.571999H89.1439V4.772H91.1439ZM90.0599 7.788H95.9119V5.788H90.0599V7.788ZM94.9225 6.6432C94.7441 7.8623 94.6879 9.03854 94.6879 11.016H96.6879C96.6879 9.07346 96.7438 8.0097 96.9014 6.9328L94.9225 6.6432ZM94.6879 11.016V19.64H96.6879V11.016H94.6879ZM94.6879 19.64C94.6879 21.1847 94.7735 22.7357 94.9186 23.9835L96.9052 23.7525C96.7703 22.5923 96.6879 21.1193 96.6879 19.64H94.6879ZM95.9119 22.868H90.0599V24.868H95.9119V22.868ZM91.0525 23.9895C91.2267 22.5672 91.2839 21.4611 91.2839 19.64H89.2839C89.2839 21.4029 89.2292 22.4248 89.0674 23.7465L91.0525 23.9895ZM91.2839 19.64V11.016H89.2839V19.64H91.2839ZM91.2839 11.016C91.2839 9.17287 91.2272 7.97648 91.0512 6.65583L89.0687 6.92016C89.2286 8.11951 89.2839 9.21913 89.2839 11.016H91.2839ZM104.128 23.868V24.868H105.25L105.121 23.7534L104.128 23.868ZM98.332 23.868L97.34 23.7414L97.1962 24.868H98.332V23.868ZM98.332 6.788V5.788H97.1708L97.343 6.93634L98.332 6.788ZM103.904 6.788H104.904V5.788H103.904V6.788ZM103.876 8.748H102.876V11.0813L104.566 9.47214L103.876 8.748ZM115.972 23.868V24.868H117.098L116.965 23.7498L115.972 23.868ZM110.148 23.868L109.156 23.744L109.015 24.868H110.148V23.868ZM109.924 11.828L110.741 11.2513L110.735 11.2425L109.924 11.828ZM103.904 13.984L103.052 13.4606L102.904 13.7014V13.984H103.904ZM104.128 22.868H98.332V24.868H104.128V22.868ZM99.3239 23.9946C99.4991 22.6225 99.556 21.4012 99.556 19.64H97.556C97.556 21.3508 97.5008 22.4815 97.34 23.7414L99.3239 23.9946ZM99.556 19.64V11.016H97.556V19.64H99.556ZM99.556 11.016C99.556 9.06927 99.5001 7.83419 99.3209 6.63966L97.343 6.93634C97.4998 7.98181 97.556 9.09872 97.556 11.016H99.556ZM98.332 7.788H103.904V5.788H98.332V7.788ZM102.904 6.788V7.964H104.904V6.788H102.904ZM102.904 7.964C102.904 8.01832 102.899 8.13429 102.891 8.29904C102.884 8.43972 102.876 8.62121 102.876 8.748H104.876C104.876 8.67879 104.881 8.55228 104.889 8.39196C104.895 8.25571 104.904 8.07768 104.904 7.964H102.904ZM104.566 9.47214C106.155 7.9589 107.619 7.368 109.644 7.368V5.368C107.077 5.368 105.125 6.1771 103.186 8.02386L104.566 9.47214ZM109.644 7.368C111.401 7.368 112.652 7.85009 113.445 8.6431L114.859 7.22889C113.58 5.9499 111.751 5.368 109.644 5.368V7.368ZM113.445 8.6431C114.317 9.5153 114.748 10.5937 114.748 12.64H116.748C116.748 10.2623 116.227 8.5967 114.859 7.22889L113.445 8.6431ZM114.748 12.64V19.668H116.748V12.64H114.748ZM114.748 19.668C114.748 21.3256 114.834 22.7655 114.979 23.9862L116.965 23.7498C116.83 22.6185 116.748 21.2584 116.748 19.668H114.748ZM115.972 22.868H110.148V24.868H115.972V22.868ZM111.14 23.992C111.315 22.5942 111.372 21.3744 111.372 19.64H109.372C109.372 21.3216 109.317 22.4538 109.156 23.744L111.14 23.992ZM111.372 19.64V13.9H109.372V19.64H111.372ZM111.372 13.9C111.372 12.7188 111.259 11.985 110.741 11.2513L109.107 12.4047C109.261 12.623 109.372 12.8412 109.372 13.9H111.372ZM110.735 11.2425C110.126 10.4 109.127 10.044 108.076 10.044V12.044C108.705 12.044 108.994 12.248 109.113 12.4135L110.735 11.2425ZM108.076 10.044C106.018 10.044 104.348 11.3508 103.052 13.4606L104.756 14.5074C105.868 12.6972 106.998 12.044 108.076 12.044V10.044ZM102.904 13.984V19.64H104.904V13.984H102.904ZM102.904 19.64C102.904 21.2664 102.961 22.4814 103.135 23.9826L105.121 23.7534C104.959 22.3426 104.904 21.2056 104.904 19.64H102.904ZM129.562 12.808L129.59 13.8076L130.562 13.7806V12.808H129.562ZM123.738 12.164L123.578 13.1511L124.439 13.2908L124.695 12.4567L123.738 12.164ZM118.39 11.296L117.443 10.975L117.064 12.0938L118.23 12.2831L118.39 11.296ZM120.742 7.908L120.167 7.09017L120.161 7.09426L120.742 7.908ZM132.222 7.292L132.702 6.41461L132.697 6.41153L132.222 7.292ZM134.994 23.868V24.868H136.112L135.988 23.7576L134.994 23.868ZM129.562 23.868H128.562V24.868H129.562V23.868ZM129.562 22.58H130.562V20.5513L128.953 21.7868L129.562 22.58ZM119.286 22.72L119.966 21.9859L119.962 21.9828L119.286 22.72ZM119.79 14.824L120.357 15.6481L120.367 15.641L119.79 14.824ZM125.614 13.004L125.703 14.0002L125.716 13.9988L125.614 13.004ZM129.562 16.392H130.562V15.3693L129.54 15.3923L129.562 16.392ZM124.718 16.952L124.416 15.9988L124.409 16.001L124.402 16.0033L124.718 16.952ZM128.554 19.332L129.203 20.0933L129.211 20.0866L128.554 19.332ZM130.562 12.808V12.164H128.562V12.808H130.562ZM130.562 12.164C130.562 11.2768 130.281 10.4407 129.521 9.8769C128.828 9.36272 127.9 9.204 126.902 9.204V11.204C127.753 11.204 128.155 11.3533 128.33 11.4831C128.438 11.5633 128.562 11.7072 128.562 12.164H130.562ZM126.902 9.204C125.913 9.204 125.016 9.36344 124.28 9.81923C123.514 10.293 123.046 11.0091 122.782 11.8713L124.695 12.4567C124.851 11.9469 125.069 11.683 125.332 11.5198C125.625 11.3386 126.1 11.204 126.902 11.204V9.204ZM123.899 11.1769L118.551 10.3089L118.23 12.2831L123.578 13.1511L123.899 11.1769ZM119.338 11.617C119.846 10.1178 120.354 9.41455 121.324 8.72173L120.161 7.09426C118.779 8.08145 118.055 9.17017 117.443 10.975L119.338 11.617ZM121.318 8.72581C122.602 7.82255 124.444 7.312 127.042 7.312V5.312C124.208 5.312 121.907 5.86545 120.167 7.09019L121.318 8.72581ZM127.042 7.312C129.039 7.312 130.865 7.69666 131.748 8.17247L132.697 6.41153C131.396 5.71134 129.19 5.312 127.042 5.312V7.312ZM131.743 8.16937C132.488 8.57697 132.976 9.07004 133.292 9.68928C133.617 10.325 133.798 11.1689 133.798 12.332H135.798C135.798 10.9751 135.588 9.78895 135.073 8.77972C134.549 7.75396 133.749 6.98703 132.702 6.41463L131.743 8.16937ZM133.798 12.332V19.892H135.798V12.332H133.798ZM133.798 19.892C133.798 21.6302 133.856 22.6757 134.001 23.9784L135.988 23.7576C135.853 22.5403 135.798 21.5698 135.798 19.892H133.798ZM134.994 22.868H129.562V24.868H134.994V22.868ZM130.562 23.868V22.58H128.562V23.868H130.562ZM128.953 21.7868C127.591 22.8332 126.248 23.26 124.13 23.26V25.26C126.605 25.26 128.398 24.7348 130.171 23.3731L128.953 21.7868ZM124.13 23.26C122.152 23.26 120.837 22.7923 119.965 21.9859L118.607 23.4541C119.976 24.7197 121.853 25.26 124.13 25.26V23.26ZM119.962 21.9828C119.194 21.2786 118.746 20.2201 118.746 18.912H116.746C116.746 20.6839 117.363 22.3134 118.611 23.4572L119.962 21.9828ZM118.746 18.912C118.746 17.4456 119.309 16.3682 120.357 15.648L119.224 14C117.583 15.1278 116.746 16.8504 116.746 18.912H118.746ZM120.367 15.641C121.601 14.7698 123.286 14.2149 125.703 14.0001L125.526 12.0079C122.903 12.2411 120.836 12.8622 119.214 14.007L120.367 15.641ZM125.716 13.9988C126.766 13.8912 127.569 13.8638 129.59 13.8076L129.535 11.8084C127.524 11.8642 126.647 11.8928 125.512 12.0092L125.716 13.9988ZM130.562 17.176V16.392H128.562V17.176H130.562ZM129.54 15.3923C127.031 15.4486 125.707 15.5894 124.416 15.9988L125.021 17.9052C126.026 17.5866 127.11 17.4474 129.585 17.3917L129.54 15.3923ZM124.402 16.0033C123.146 16.4219 122.094 17.4096 122.094 18.8H124.094C124.094 18.5664 124.274 18.1541 125.035 17.9007L124.402 16.0033ZM122.094 18.8C122.094 19.6233 122.458 20.3322 123.125 20.7966C123.746 21.2292 124.549 21.396 125.39 21.396V19.396C124.776 19.396 124.431 19.2688 124.268 19.1554C124.151 19.0738 124.094 18.9847 124.094 18.8H122.094ZM125.39 21.396C126.733 21.396 128.236 20.9171 129.203 20.0932L127.906 18.5708C127.361 19.0349 126.344 19.396 125.39 19.396V21.396ZM129.211 20.0866C130.059 19.3491 130.562 18.3239 130.562 17.176H128.562C128.562 17.7081 128.338 18.1949 127.898 18.5774L129.211 20.0866ZM137.407 0.571999V-0.428001H136.237L136.42 0.727961L137.407 0.571999ZM143.259 0.571999L144.249 0.71342L144.412 -0.428001H143.259V0.571999ZM143.259 23.868V24.868H144.379L144.253 23.7555L143.259 23.868ZM137.407 23.868L136.416 23.7358L136.265 24.868H137.407V23.868ZM137.407 1.572H143.259V-0.428001H137.407V1.572ZM142.269 0.430576C142.092 1.67511 142.035 2.87732 142.035 4.8H144.035C144.035 2.91468 144.091 1.82088 144.249 0.71342L142.269 0.430576ZM142.035 4.8V19.64H144.035V4.8H142.035ZM142.035 19.64C142.035 21.3528 142.093 22.4546 142.266 23.9805L144.253 23.7555C144.09 22.3134 144.035 21.2872 144.035 19.64H142.035ZM143.259 22.868H137.407V24.868H143.259V22.868ZM138.399 24.0002C138.574 22.6816 138.631 21.6823 138.631 19.64H136.631C136.631 21.6297 136.576 22.5344 136.416 23.7358L138.399 24.0002ZM138.631 19.64V4.8H136.631V19.64H138.631ZM138.631 4.8C138.631 2.80126 138.576 1.56075 138.395 0.416036L136.42 0.727961C136.575 1.71125 136.631 2.82274 136.631 4.8H138.631ZM145.652 0.571999V-0.428001H144.482L144.664 0.727961L145.652 0.571999ZM151.504 0.571999L152.494 0.71342L152.657 -0.428001H151.504V0.571999ZM151.504 23.868V24.868H152.624L152.498 23.7555L151.504 23.868ZM145.652 23.868L144.661 23.7358L144.51 24.868H145.652V23.868ZM145.652 1.572H151.504V-0.428001H145.652V1.572ZM150.514 0.430576C150.336 1.67511 150.28 2.87732 150.28 4.8H152.28C152.28 2.91468 152.336 1.82088 152.494 0.71342L150.514 0.430576ZM150.28 4.8V19.64H152.28V4.8H150.28ZM150.28 19.64C150.28 21.3528 150.338 22.4546 150.51 23.9805L152.498 23.7555C152.334 22.3134 152.28 21.2872 152.28 19.64H150.28ZM151.504 22.868H145.652V24.868H151.504V22.868ZM146.643 24.0002C146.819 22.6816 146.876 21.6823 146.876 19.64H144.876C144.876 21.6297 144.821 22.5344 144.661 23.7358L146.643 24.0002ZM146.876 19.64V4.8H144.876V19.64H146.876ZM146.876 4.8C146.876 2.80126 146.82 1.56075 146.64 0.416036L144.664 0.727961C144.819 1.71125 144.876 2.82274 144.876 4.8H146.876ZM159.525 22.356L160.423 22.7948L160.628 22.3765L160.439 21.9509L159.525 22.356ZM154.289 10.54L153.37 10.9351L153.374 10.9451L154.289 10.54ZM152.609 6.788V5.788H150.962L151.721 7.24935L152.609 6.788ZM158.685 6.788L159.673 6.63362L159.541 5.788H158.685V6.788ZM159.777 10.4L158.845 10.7625L158.848 10.77L159.777 10.4ZM162.353 16.868L161.424 17.238L162.36 19.589L163.284 17.233L162.353 16.868ZM164.845 10.512L163.918 10.136L163.914 10.147L164.845 10.512ZM166.049 6.788V5.788H165.206L165.063 6.61904L166.049 6.788ZM172.125 6.788L173.026 7.22129L173.715 5.788H172.125V6.788ZM170.445 10.54L171.362 10.9373L171.364 10.9326L170.445 10.54ZM164.033 25.352L163.115 24.9547L163.113 24.9604L164.033 25.352ZM153.869 28.712L152.878 28.5749L152.751 29.4917L153.655 29.689L153.869 28.712ZM154.485 24.26L154.943 23.371L153.688 22.7245L153.494 24.1229L154.485 24.26ZM158.937 23.56L159.831 24.0072L159.835 23.9988L158.937 23.56ZM160.439 21.9509L155.203 10.1349L153.374 10.9451L158.61 22.7611L160.439 21.9509ZM155.207 10.145C154.009 7.35751 153.881 7.0666 153.496 6.32665L151.721 7.24935C152.065 7.9094 152.161 8.12249 153.37 10.935L155.207 10.145ZM152.609 7.788H158.685V5.788H152.609V7.788ZM157.697 6.94238C157.853 7.94441 158.248 9.22702 158.845 10.7624L160.709 10.0376C160.13 8.54898 159.796 7.42359 159.673 6.63362L157.697 6.94238ZM158.848 10.77L161.424 17.238L163.282 16.498L160.706 10.03L158.848 10.77ZM163.284 17.233L165.776 10.877L163.914 10.147L161.422 16.503L163.284 17.233ZM165.771 10.888C166.563 8.93651 166.848 8.04483 167.034 6.95696L165.063 6.61904C164.914 7.49116 164.694 8.22348 163.918 10.136L165.771 10.888ZM166.049 7.788H172.125V5.788H166.049V7.788ZM171.223 6.3547C170.514 7.82928 170.508 7.84423 169.525 10.1474L171.364 10.9326C172.341 8.64377 172.335 8.65871 173.026 7.22129L171.223 6.3547ZM169.527 10.1427L163.115 24.9547L164.95 25.7493L171.362 10.9373L169.527 10.1427ZM163.113 24.9604C162.619 26.1203 161.96 26.8988 161.129 27.401C160.287 27.9097 159.179 28.188 157.705 28.188V30.188C159.422 30.188 160.919 29.8643 162.163 29.113C163.417 28.3552 164.326 27.2157 164.953 25.7436L163.113 24.9604ZM157.705 28.188C156.566 28.188 155.577 28.0612 154.082 27.735L153.655 29.689C155.24 30.0348 156.379 30.188 157.705 30.188V28.188ZM154.859 28.8491L155.475 24.3971L153.494 24.1229L152.878 28.5749L154.859 28.8491ZM154.027 25.149C155.048 25.6753 155.738 25.876 156.669 25.876V23.876C156.143 23.876 155.769 23.7967 154.943 23.371L154.027 25.149ZM156.669 25.876C158.075 25.876 159.226 25.2172 159.831 24.0072L158.042 23.1128C157.807 23.5828 157.39 23.876 156.669 23.876V25.876ZM159.835 23.9988L160.423 22.7948L158.626 21.9172L158.038 23.1212L159.835 23.9988ZM179.488 23.868V24.868H180.611L180.481 23.7525L179.488 23.868ZM173.468 23.868L172.477 23.7329L172.322 24.868H173.468V23.868ZM173.468 0.487999L173.51 -0.511096L172.325 -0.561504L172.476 0.614632L173.468 0.487999ZM179.264 16.056V15.056H178.264V16.056H179.264ZM179.264 11.296H178.264V12.296H179.264V11.296ZM179.264 5.332V4.332H178.264V5.332H179.264ZM179.488 22.868H173.468V24.868H179.488V22.868ZM174.458 24.0031C174.635 22.7076 174.692 21.3973 174.692 19.724H172.692C172.692 21.3547 172.636 22.5644 172.477 23.7329L174.458 24.0031ZM174.692 19.724V4.576H172.692V19.724H174.692ZM174.692 4.576C174.692 3.03791 174.635 1.73288 174.46 0.361367L172.476 0.614632C172.637 1.87512 172.692 3.09009 172.692 4.576H174.692ZM173.425 1.48709C174.754 1.54366 175.777 1.572 177.584 1.572V-0.428001C175.807 -0.428001 174.813 -0.455666 173.51 -0.511096L173.425 1.48709ZM177.584 1.572H183.716V-0.428001H177.584V1.572ZM183.716 1.572C186.343 1.572 188.222 2.20317 189.434 3.26358C190.624 4.30521 191.312 5.8849 191.312 8.104H193.312C193.312 5.4511 192.473 3.26478 190.751 1.75842C189.051 0.270823 186.633 -0.428001 183.716 -0.428001V1.572ZM191.312 8.104C191.312 10.3756 190.591 12.0753 189.358 13.2146C188.115 14.3636 186.228 15.056 183.688 15.056V17.056C186.579 17.056 189.005 16.2644 190.715 14.6834C192.436 13.0927 193.312 10.8164 193.312 8.104H191.312ZM183.688 15.056H179.264V17.056H183.688V15.056ZM178.264 16.056V19.64H180.264V16.056H178.264ZM178.264 19.64C178.264 21.3266 178.349 22.7374 178.494 23.9835L180.481 23.7525C180.346 22.5906 180.264 21.2574 180.264 19.64H178.264ZM179.264 12.296H183.436V10.296H179.264V12.296ZM183.436 12.296C184.596 12.296 185.652 11.9702 186.42 11.2273C187.193 10.4797 187.544 9.43714 187.544 8.272H185.544C185.544 9.03886 185.32 9.50829 185.029 9.78967C184.734 10.0758 184.235 10.296 183.436 10.296V12.296ZM187.544 8.272C187.544 7.11935 187.213 6.08488 186.43 5.34887C185.658 4.62273 184.598 4.332 183.436 4.332V6.332C184.289 6.332 184.783 6.54527 185.061 6.80613C185.328 7.05711 185.544 7.49265 185.544 8.272H187.544ZM183.436 4.332H179.264V6.332H183.436V4.332ZM178.264 5.332V11.296H180.264V5.332H178.264ZM194.011 0.571999V-0.428001H192.841L193.023 0.727961L194.011 0.571999ZM199.863 0.571999L200.853 0.71342L201.016 -0.428001H199.863V0.571999ZM199.863 23.868V24.868H200.983L200.857 23.7555L199.863 23.868ZM194.011 23.868L193.02 23.7358L192.869 24.868H194.011V23.868ZM194.011 1.572H199.863V-0.428001H194.011V1.572ZM198.873 0.430576C198.695 1.67511 198.639 2.87732 198.639 4.8H200.639C200.639 2.91468 200.695 1.82088 200.853 0.71342L198.873 0.430576ZM198.639 4.8V19.64H200.639V4.8H198.639ZM198.639 19.64C198.639 21.3528 198.697 22.4546 198.869 23.9805L200.857 23.7555C200.693 22.3134 200.639 21.2872 200.639 19.64H198.639ZM199.863 22.868H194.011V24.868H199.863V22.868ZM195.002 24.0002C195.178 22.6816 195.235 21.6823 195.235 19.64H193.235C193.235 21.6297 193.18 22.5344 193.02 23.7358L195.002 24.0002ZM195.235 19.64V4.8H193.235V19.64H195.235ZM195.235 4.8C195.235 2.80126 195.18 1.56075 194.999 0.416036L193.023 0.727961C193.179 1.71125 193.235 2.82274 193.235 4.8H195.235ZM213.484 12.808L213.511 13.8076L214.484 13.7806V12.808H213.484ZM207.66 12.164L207.5 13.1511L208.361 13.2908L208.616 12.4567L207.66 12.164ZM202.312 11.296L201.365 10.975L200.985 12.0938L202.152 12.2831L202.312 11.296ZM204.664 7.908L204.088 7.09017L204.082 7.09426L204.664 7.908ZM216.144 7.292L216.624 6.41461L216.618 6.41153L216.144 7.292ZM218.916 23.868V24.868H220.033L219.91 23.7576L218.916 23.868ZM213.484 23.868H212.484V24.868H213.484V23.868ZM213.484 22.58H214.484V20.5513L212.875 21.7868L213.484 22.58ZM203.208 22.72L203.887 21.9859L203.883 21.9828L203.208 22.72ZM203.712 14.824L204.278 15.6481L204.288 15.641L203.712 14.824ZM209.536 13.004L209.624 14.0002L209.638 13.9988L209.536 13.004ZM213.484 16.392H214.484V15.3693L213.461 15.3923L213.484 16.392ZM208.64 16.952L208.337 15.9988L208.33 16.001L208.323 16.0033L208.64 16.952ZM212.476 19.332L213.124 20.0933L213.132 20.0866L212.476 19.332ZM214.484 12.808V12.164H212.484V12.808H214.484ZM214.484 12.164C214.484 11.2768 214.203 10.4407 213.443 9.8769C212.75 9.36272 211.821 9.204 210.824 9.204V11.204C211.675 11.204 212.076 11.3533 212.251 11.4831C212.359 11.5633 212.484 11.7072 212.484 12.164H214.484ZM210.824 9.204C209.834 9.204 208.937 9.36344 208.201 9.81923C207.436 10.293 206.967 11.0091 206.704 11.8713L208.616 12.4567C208.772 11.9469 208.99 11.683 209.254 11.5198C209.546 11.3386 210.021 11.204 210.824 11.204V9.204ZM207.82 11.1769L202.472 10.3089L202.152 12.2831L207.5 13.1511L207.82 11.1769ZM203.259 11.617C203.767 10.1178 204.275 9.41455 205.245 8.72173L204.082 7.09426C202.7 8.08145 201.976 9.17017 201.365 10.975L203.259 11.617ZM205.239 8.72581C206.523 7.82255 208.366 7.312 210.964 7.312V5.312C208.13 5.312 205.829 5.86545 204.088 7.09019L205.239 8.72581ZM210.964 7.312C212.96 7.312 214.786 7.69666 215.67 8.17247L216.618 6.41153C215.317 5.71134 213.111 5.312 210.964 5.312V7.312ZM215.664 8.16937C216.409 8.57697 216.897 9.07004 217.213 9.68928C217.538 10.325 217.72 11.1689 217.72 12.332H219.72C219.72 10.9751 219.51 9.78895 218.994 8.77972C218.471 7.75396 217.67 6.98703 216.624 6.41463L215.664 8.16937ZM217.72 12.332V19.892H219.72V12.332H217.72ZM217.72 19.892C217.72 21.6302 217.777 22.6757 217.922 23.9784L219.91 23.7576C219.774 22.5403 219.72 21.5698 219.72 19.892H217.72ZM218.916 22.868H213.484V24.868H218.916V22.868ZM214.484 23.868V22.58H212.484V23.868H214.484ZM212.875 21.7868C211.512 22.8332 210.169 23.26 208.052 23.26V25.26C210.526 25.26 212.319 24.7348 214.093 23.3731L212.875 21.7868ZM208.052 23.26C206.073 23.26 204.759 22.7923 203.887 21.9859L202.529 23.4541C203.897 24.7197 205.774 25.26 208.052 25.26V23.26ZM203.883 21.9828C203.115 21.2786 202.668 20.2201 202.668 18.912H200.668C200.668 20.6839 201.284 22.3134 202.532 23.4572L203.883 21.9828ZM202.668 18.912C202.668 17.4456 203.231 16.3682 204.278 15.648L203.145 14C201.505 15.1278 200.668 16.8504 200.668 18.912H202.668ZM204.288 15.641C205.522 14.7698 207.207 14.2149 209.624 14.0001L209.447 12.0079C206.824 12.2411 204.757 12.8622 203.135 14.007L204.288 15.641ZM209.638 13.9988C210.687 13.8912 211.49 13.8638 213.511 13.8076L213.456 11.8084C211.445 11.8642 210.569 11.8928 209.434 12.0092L209.638 13.9988ZM214.484 17.176V16.392H212.484V17.176H214.484ZM213.461 15.3923C210.952 15.4486 209.629 15.5894 208.337 15.9988L208.942 17.9052C209.947 17.5866 211.031 17.4474 213.506 17.3917L213.461 15.3923ZM208.323 16.0033C207.068 16.4219 206.016 17.4096 206.016 18.8H208.016C208.016 18.5664 208.196 18.1541 208.956 17.9007L208.323 16.0033ZM206.016 18.8C206.016 19.6233 206.379 20.3322 207.046 20.7966C207.667 21.2292 208.47 21.396 209.312 21.396V19.396C208.698 19.396 208.352 19.2688 208.189 19.1554C208.072 19.0738 208.016 18.9847 208.016 18.8H206.016ZM209.312 21.396C210.654 21.396 212.157 20.9171 213.124 20.0932L211.827 18.5708C211.282 19.0349 210.265 19.396 209.312 19.396V21.396ZM213.132 20.0866C213.98 19.3491 214.484 18.3239 214.484 17.176H212.484C212.484 17.7081 212.259 18.1949 211.82 18.5774L213.132 20.0866ZM226.957 22.356L227.855 22.7948L228.059 22.3765L227.871 21.9509L226.957 22.356ZM221.721 10.54L220.802 10.9351L220.806 10.9451L221.721 10.54ZM220.041 6.788V5.788H218.393L219.153 7.24935L220.041 6.788ZM226.117 6.788L227.105 6.63362L226.972 5.788H226.117V6.788ZM227.209 10.4L226.276 10.7625L226.279 10.77L227.209 10.4ZM229.785 16.868L228.855 17.238L229.792 19.589L230.716 17.233L229.785 16.868ZM232.277 10.512L231.35 10.136L231.346 10.147L232.277 10.512ZM233.481 6.788V5.788H232.637L232.495 6.61904L233.481 6.788ZM239.557 6.788L240.458 7.22129L241.147 5.788H239.557V6.788ZM237.877 10.54L238.794 10.9373L238.796 10.9326L237.877 10.54ZM231.465 25.352L230.547 24.9547L230.544 24.9604L231.465 25.352ZM221.301 28.712L220.31 28.5749L220.183 29.4917L221.087 29.689L221.301 28.712ZM221.917 24.26L222.374 23.371L221.119 22.7245L220.926 24.1229L221.917 24.26ZM226.369 23.56L227.263 24.0072L227.267 23.9988L226.369 23.56ZM227.871 21.9509L222.635 10.1349L220.806 10.9451L226.042 22.7611L227.871 21.9509ZM222.639 10.145C221.441 7.35751 221.313 7.0666 220.928 6.32665L219.153 7.24935C219.497 7.9094 219.592 8.12249 220.802 10.935L222.639 10.145ZM220.041 7.788H226.117V5.788H220.041V7.788ZM225.129 6.94238C225.285 7.94441 225.679 9.22702 226.277 10.7624L228.141 10.0376C227.562 8.54898 227.228 7.42359 227.105 6.63362L225.129 6.94238ZM226.279 10.77L228.855 17.238L230.714 16.498L228.138 10.03L226.279 10.77ZM230.716 17.233L233.208 10.877L231.346 10.147L228.854 16.503L230.716 17.233ZM233.203 10.888C233.995 8.93651 234.28 8.04483 234.466 6.95696L232.495 6.61904C232.345 7.49116 232.126 8.22348 231.35 10.136L233.203 10.888ZM233.481 7.788H239.557V5.788H233.481V7.788ZM238.655 6.3547C237.946 7.82928 237.94 7.84423 236.957 10.1474L238.796 10.9326C239.773 8.64377 239.767 8.65871 240.458 7.22129L238.655 6.3547ZM236.959 10.1427L230.547 24.9547L232.382 25.7493L238.794 10.9373L236.959 10.1427ZM230.544 24.9604C230.051 26.1203 229.392 26.8988 228.561 27.401C227.718 27.9097 226.611 28.188 225.137 28.188V30.188C226.854 30.188 228.351 29.8643 229.595 29.113C230.849 28.3552 231.758 27.2157 232.385 25.7436L230.544 24.9604ZM225.137 28.188C223.998 28.188 223.009 28.0612 221.514 27.735L221.087 29.689C222.672 30.0348 223.811 30.188 225.137 30.188V28.188ZM222.291 28.8491L222.907 24.3971L220.926 24.1229L220.31 28.5749L222.291 28.8491ZM221.459 25.149C222.48 25.6753 223.17 25.876 224.101 25.876V23.876C223.575 23.876 223.201 23.7967 222.374 23.371L221.459 25.149ZM224.101 25.876C225.507 25.876 226.658 25.2172 227.263 24.0072L225.474 23.1128C225.239 23.5828 224.822 23.876 224.101 23.876V25.876ZM227.267 23.9988L227.855 22.7948L226.058 21.9172L225.47 23.1212L227.267 23.9988ZM257.671 16.896V17.896H258.776L258.667 16.7965L257.671 16.896ZM245.071 16.896V15.896H243.94L244.079 17.0185L245.071 16.896ZM251.707 19.332L252.386 20.0668L252.39 20.0631L251.707 19.332ZM252.547 17.904L252.819 16.9414L251.879 16.6768L251.592 17.6099L252.547 17.904ZM257.419 19.276L258.334 19.6805L258.8 18.626L257.691 18.3134L257.419 19.276ZM255.571 22.16L256.272 22.8734L256.279 22.8671L255.571 22.16ZM242.467 22.16L241.754 22.8612L241.76 22.8671L242.467 22.16ZM257.223 12.668L256.25 12.8967L256.252 12.9036L256.253 12.9105L257.223 12.668ZM257.643 16.336H258.643V16.3097L258.642 16.2834L257.643 16.336ZM245.155 13.032L244.187 12.7826L243.865 14.032H245.155V13.032ZM252.351 13.032V14.032H253.594L253.328 12.8183L252.351 13.032ZM257.671 15.896H245.071V17.896H257.671V15.896ZM244.079 17.0185C244.239 18.3167 244.713 19.4326 245.577 20.2212C246.445 21.0137 247.59 21.368 248.879 21.368V19.368C247.957 19.368 247.338 19.1203 246.925 18.7438C246.508 18.3634 246.184 17.7433 246.064 16.7735L244.079 17.0185ZM248.879 21.368C250.221 21.368 251.452 20.9286 252.386 20.0668L251.029 18.5972C250.507 19.0794 249.778 19.368 248.879 19.368V21.368ZM252.39 20.0631C252.642 19.8276 252.866 19.5804 253.06 19.2565C253.247 18.9419 253.38 18.5976 253.503 18.1981L251.592 17.6099C251.491 17.9384 251.414 18.1121 251.342 18.2315C251.277 18.3416 251.193 18.4444 251.025 18.6009L252.39 20.0631ZM252.276 18.8666L257.148 20.2386L257.691 18.3134L252.819 16.9414L252.276 18.8666ZM256.505 18.8715C255.893 20.2543 255.535 20.7822 254.864 21.4529L256.279 22.8671C257.176 21.9698 257.658 21.2097 258.334 19.6805L256.505 18.8715ZM254.871 21.4467C253.503 22.7907 251.537 23.54 248.963 23.54V25.54C251.934 25.54 254.448 24.6653 256.272 22.8733L254.871 21.4467ZM248.963 23.54C246.421 23.54 244.542 22.8206 243.175 21.4529L241.76 22.8671C243.585 24.6914 246.018 25.54 248.963 25.54V23.54ZM243.18 21.4589C241.742 19.9963 240.919 17.8836 240.919 15.328H238.919C238.919 18.3164 239.889 20.9637 241.754 22.8611L243.18 21.4589ZM240.919 15.328C240.919 12.7722 241.736 10.7328 243.085 9.33829C244.431 7.94672 246.386 7.116 248.823 7.116V5.116C245.913 5.116 243.416 6.11927 241.647 7.94771C239.881 9.77316 238.919 12.3398 238.919 15.328H240.919ZM248.823 7.116C250.823 7.116 252.451 7.65839 253.679 8.61602C254.905 9.57255 255.804 10.9994 256.25 12.8967L258.197 12.4393C257.663 10.1646 256.546 8.31545 254.909 7.03898C253.274 5.76361 251.192 5.116 248.823 5.116V7.116ZM256.253 12.9105C256.452 13.7035 256.561 14.7932 256.645 16.3886L258.642 16.2834C258.558 14.6868 258.443 13.4245 258.194 12.4255L256.253 12.9105ZM256.643 16.336C256.643 16.4643 256.644 16.669 256.676 16.9955L258.667 16.7965C258.643 16.563 258.643 16.4317 258.643 16.336H256.643ZM245.155 14.032H252.351V12.032H245.155V14.032ZM253.328 12.8183C253.094 11.7459 252.593 10.8347 251.781 10.1999C250.971 9.56791 249.953 9.288 248.823 9.288V11.288C249.626 11.288 250.176 11.4841 250.549 11.7761C250.92 12.0653 251.217 12.5261 251.375 13.2457L253.328 12.8183ZM248.823 9.288C247.682 9.288 246.654 9.54599 245.824 10.1659C244.989 10.7896 244.467 11.6966 244.187 12.7826L246.124 13.2814C246.32 12.5194 246.638 12.0544 247.021 11.7681C247.409 11.478 247.977 11.288 248.823 11.288V9.288ZM272.441 23.868H271.441V24.868H272.441V23.868ZM272.469 22.356L273.463 22.4664L273.731 20.0546L271.841 21.5774L272.469 22.356ZM261.045 8.468L260.338 7.76086L260.331 7.76718L261.045 8.468ZM272.469 8.356L271.843 9.13572L273.618 10.5614L273.467 8.28948L272.469 8.356ZM272.217 0.571999V-0.428001H271.071L271.226 0.707111L272.217 0.571999ZM277.957 0.571999L278.947 0.713419L279.11 -0.428001H277.957V0.571999ZM277.957 23.868V24.868H279.087L278.949 23.7465L277.957 23.868ZM265.357 19.024L266.064 18.3169L266.058 18.3109L266.052 18.305L265.357 19.024ZM273.441 23.868V22.972H271.441V23.868H273.441ZM273.441 22.972C273.441 22.8078 273.441 22.6593 273.463 22.4664L271.475 22.2456C271.44 22.5567 271.441 22.8002 271.441 22.972H273.441ZM271.841 21.5774C270.958 22.2896 270.23 22.7236 269.484 22.9888C268.739 23.2538 267.916 23.372 266.813 23.372V25.372C268.061 25.372 269.128 25.2382 270.154 24.8732C271.18 24.5084 272.104 23.9344 273.096 23.1346L271.841 21.5774ZM266.813 23.372C264.499 23.372 262.743 22.6041 261.557 21.2875C260.358 19.9578 259.637 17.9533 259.637 15.3H257.637C257.637 18.3027 258.456 20.8342 260.071 22.6265C261.698 24.4319 264.031 25.372 266.813 25.372V23.372ZM259.637 15.3C259.637 12.578 260.419 10.532 261.758 9.16882L260.331 7.76718C258.535 9.59603 257.637 12.198 257.637 15.3H259.637ZM261.752 9.17511C262.967 7.95988 264.66 7.284 266.729 7.284V5.284C264.206 5.284 261.978 6.12011 260.338 7.76089L261.752 9.17511ZM266.729 7.284C268.757 7.284 270.163 7.78682 271.843 9.13572L273.095 7.57628C271.079 5.95718 269.236 5.284 266.729 5.284V7.284ZM273.467 8.28948C273.441 7.90473 273.441 7.68072 273.441 7.292H271.441C271.441 7.68728 271.441 7.96727 271.471 8.42252L273.467 8.28948ZM273.441 7.292V4.968H271.441V7.292H273.441ZM273.441 4.968C273.441 2.98972 273.385 1.73415 273.208 0.436886L271.226 0.707111C271.385 1.87385 271.441 3.02628 271.441 4.968H273.441ZM272.217 1.572H277.957V-0.428001H272.217V1.572ZM276.967 0.430577C276.789 1.67821 276.733 3.079 276.733 4.968H278.733C278.733 3.105 278.789 1.81778 278.947 0.713419L276.967 0.430577ZM276.733 4.968V19.472H278.733V4.968H276.733ZM276.733 19.472C276.733 21.3735 276.79 22.5645 276.964 23.9895L278.949 23.7465C278.788 22.4275 278.733 21.3225 278.733 19.472H276.733ZM277.957 22.868H272.441V24.868H277.957V22.868ZM268.045 9.568C266.558 9.568 265.273 10.1339 264.377 11.2031C263.497 12.2525 263.069 13.6925 263.069 15.328H265.069C265.069 14.0235 265.41 13.0835 265.91 12.4879C266.392 11.9121 267.095 11.568 268.045 11.568V9.568ZM263.069 15.328C263.069 17.0921 263.564 18.6814 264.662 19.743L266.052 18.305C265.47 17.7426 265.069 16.7559 265.069 15.328H263.069ZM264.65 19.7311C265.529 20.6106 266.801 21.088 268.073 21.088V19.088C267.272 19.088 266.528 18.7814 266.064 18.3169L264.65 19.7311ZM268.073 21.088C271.227 21.088 273.385 18.4518 273.385 15.244H271.385C271.385 17.5802 269.903 19.088 268.073 19.088V21.088ZM273.385 15.244C273.385 12.0516 271.218 9.568 268.045 9.568V11.568C269.968 11.568 271.385 13.0044 271.385 15.244H273.385Z" fill="url(#paint1_linear_40_391)" fill-opacity="0.44" mask="url(#path-1-inside-1_40_391)"/>
<defs>
<filter id="filter0_i_40_391" x="0.475708" y="0.375977" width="280.481" height="30.812" filterUnits="userSpaceOnUse" color-interpolation-filters="sRGB">
<feFlood flood-opacity="0" result="BackgroundImageFix"/>
<feBlend mode="normal" in="SourceGraphic" in2="BackgroundImageFix" result="shape"/>
<feColorMatrix in="SourceAlpha" type="matrix" values="0 0 0 0 0 0 0 0 0 0 0 0 0 0 0 0 0 0 127 0" result="hardAlpha"/>
<feOffset dx="3" dy="2"/>
<feGaussianBlur stdDeviation="2"/>
<feComposite in2="hardAlpha" operator="arithmetic" k2="-1" k3="1"/>
<feColorMatrix type="matrix" values="0 0 0 0 0.976238 0 0 0 0 1 0 0 0 0 0.830273 0 0 0 0.33 0"/>
<feBlend mode="normal" in2="shape" result="effect1_innerShadow_40_391"/>
</filter>
<linearGradient id="paint0_linear_40_391" x1="67.7367" y1="-41.75" x2="331.385" y2="-24.989" gradientUnits="userSpaceOnUse">
<stop stop-color="#08A232"/>
<stop offset="0.333333" stop-color="#2DE6FF"/>
<stop offset="0.666667" stop-color="#3B57ED"/>
<stop offset="1" stop-color="#916AFF"/>
</linearGradient>
<linearGradient id="paint1_linear_40_391" x1="232.341" y1="-35.5" x2="38.7574" y2="-16.4674" gradientUnits="userSpaceOnUse">
<stop stop-color="white"/>
<stop offset="1" stop-color="#69FFFF" stop-opacity="0.2"/>
</linearGradient>
</defs>
</svg>
